<ttFont>
    <TTGlyph name=".notdef" xMin="68" yMin="0" xMax="612" yMax="1365">
      <contour>
        <pt x="68" y="0" on="1"/>
        <pt x="68" y="1365" on="1"/>
        <pt x="612" y="1365" on="1"/>
        <pt x="612" y="0" on="1"/>
      </contour>
      <contour>
        <pt x="136" y="68" on="1"/>
        <pt x="544" y="68" on="1"/>
        <pt x="544" y="1297" on="1"/>
        <pt x="136" y="1297" on="1"/>
      </contour>
    </TTGlyph>
    <TTGlyph name="A" xMin="0" yMin="0" xMax="1024" yMax="1536">
      <contour>
        <pt x="1024" y="1536" on="1"/>
        <pt x="1024" y="0" on="1"/>
        <pt x="0" y="0" on="1"/>
        <pt x="0" y="1536" on="1"/>
      </contour>
      <contour>
        <pt x="1024" y="1536" on="1"/>
        <pt x="1024" y="0" on="1"/>
        <pt x="0" y="0" on="1"/>
        <pt x="0" y="1536" on="1"/>
      </contour>
    </TTGlyph>
    <TTGlyph name="AE" xMin="0" yMin="0" xMax="1024" yMax="1536">
      <contour>
        <pt x="1024" y="1536" on="1"/>
        <pt x="1024" y="0" on="1"/>
        <pt x="0" y="0" on="1"/>
        <pt x="0" y="1536" on="1"/>
      </contour>
      <contour>
        <pt x="1024" y="1536" on="1"/>
        <pt x="1024" y="0" on="1"/>
        <pt x="0" y="0" on="1"/>
        <pt x="0" y="1536" on="1"/>
      </contour>
    </TTGlyph>
    <TTGlyph name="Aacute" xMin="0" yMin="0" xMax="1024" yMax="1536">
      <contour>
        <pt x="1024" y="1536" on="1"/>
        <pt x="1024" y="0" on="1"/>
        <pt x="0" y="0" on="1"/>
        <pt x="0" y="1536" on="1"/>
      </contour>
      <contour>
        <pt x="1024" y="1536" on="1"/>
        <pt x="1024" y="0" on="1"/>
        <pt x="0" y="0" on="1"/>
        <pt x="0" y="1536" on="1"/>
      </contour>
    </TTGlyph>
    <TTGlyph name="Acircumflex" xMin="0" yMin="0" xMax="1024" yMax="1536">
      <contour>
        <pt x="1024" y="1536" on="1"/>
        <pt x="1024" y="0" on="1"/>
        <pt x="0" y="0" on="1"/>
        <pt x="0" y="1536" on="1"/>
      </contour>
      <contour>
        <pt x="1024" y="1536" on="1"/>
        <pt x="1024" y="0" on="1"/>
        <pt x="0" y="0" on="1"/>
        <pt x="0" y="1536" on="1"/>
      </contour>
    </TTGlyph>
    <TTGlyph name="Adieresis" xMin="0" yMin="0" xMax="1024" yMax="1536">
      <contour>
        <pt x="1024" y="1536" on="1"/>
        <pt x="1024" y="0" on="1"/>
        <pt x="0" y="0" on="1"/>
        <pt x="0" y="1536" on="1"/>
      </contour>
      <contour>
        <pt x="1024" y="1536" on="1"/>
        <pt x="1024" y="0" on="1"/>
        <pt x="0" y="0" on="1"/>
        <pt x="0" y="1536" on="1"/>
      </contour>
    </TTGlyph>
    <TTGlyph name="Agrave" xMin="0" yMin="0" xMax="1024" yMax="1536">
      <contour>
        <pt x="1024" y="1536" on="1"/>
        <pt x="1024" y="0" on="1"/>
        <pt x="0" y="0" on="1"/>
        <pt x="0" y="1536" on="1"/>
      </contour>
      <contour>
        <pt x="1024" y="1536" on="1"/>
        <pt x="1024" y="0" on="1"/>
        <pt x="0" y="0" on="1"/>
        <pt x="0" y="1536" on="1"/>
      </contour>
    </TTGlyph>
    <TTGlyph name="Aring" xMin="0" yMin="0" xMax="1024" yMax="1536">
      <contour>
        <pt x="1024" y="1536" on="1"/>
        <pt x="1024" y="0" on="1"/>
        <pt x="0" y="0" on="1"/>
        <pt x="0" y="1536" on="1"/>
      </contour>
      <contour>
        <pt x="1024" y="1536" on="1"/>
        <pt x="1024" y="0" on="1"/>
        <pt x="0" y="0" on="1"/>
        <pt x="0" y="1536" on="1"/>
      </contour>
    </TTGlyph>
    <TTGlyph name="Atilde" xMin="0" yMin="0" xMax="1024" yMax="1536">
      <contour>
        <pt x="1024" y="1536" on="1"/>
        <pt x="1024" y="0" on="1"/>
        <pt x="0" y="0" on="1"/>
        <pt x="0" y="1536" on="1"/>
      </contour>
      <contour>
        <pt x="1024" y="1536" on="1"/>
        <pt x="1024" y="0" on="1"/>
        <pt x="0" y="0" on="1"/>
        <pt x="0" y="1536" on="1"/>
      </contour>
    </TTGlyph>
    <TTGlyph name="B" xMin="0" yMin="0" xMax="1024" yMax="1536">
      <contour>
        <pt x="1024" y="1536" on="1"/>
        <pt x="1024" y="0" on="1"/>
        <pt x="0" y="0" on="1"/>
        <pt x="0" y="1536" on="1"/>
      </contour>
      <contour>
        <pt x="1024" y="1536" on="1"/>
        <pt x="1024" y="0" on="1"/>
        <pt x="0" y="0" on="1"/>
        <pt x="0" y="1536" on="1"/>
      </contour>
    </TTGlyph>
    <TTGlyph name="C" xMin="0" yMin="0" xMax="1024" yMax="1536">
      <contour>
        <pt x="1024" y="1536" on="1"/>
        <pt x="1024" y="0" on="1"/>
        <pt x="0" y="0" on="1"/>
        <pt x="0" y="1536" on="1"/>
      </contour>
      <contour>
        <pt x="1024" y="1536" on="1"/>
        <pt x="1024" y="0" on="1"/>
        <pt x="0" y="0" on="1"/>
        <pt x="0" y="1536" on="1"/>
      </contour>
    </TTGlyph>
    <TTGlyph name="Ccedilla" xMin="0" yMin="0" xMax="1024" yMax="1536">
      <contour>
        <pt x="1024" y="1536" on="1"/>
        <pt x="1024" y="0" on="1"/>
        <pt x="0" y="0" on="1"/>
        <pt x="0" y="1536" on="1"/>
      </contour>
      <contour>
        <pt x="1024" y="1536" on="1"/>
        <pt x="1024" y="0" on="1"/>
        <pt x="0" y="0" on="1"/>
        <pt x="0" y="1536" on="1"/>
      </contour>
    </TTGlyph>
    <TTGlyph name="D" xMin="0" yMin="0" xMax="1024" yMax="1536">
      <contour>
        <pt x="1024" y="1536" on="1"/>
        <pt x="1024" y="0" on="1"/>
        <pt x="0" y="0" on="1"/>
        <pt x="0" y="1536" on="1"/>
      </contour>
      <contour>
        <pt x="1024" y="1536" on="1"/>
        <pt x="1024" y="0" on="1"/>
        <pt x="0" y="0" on="1"/>
        <pt x="0" y="1536" on="1"/>
      </contour>
    </TTGlyph>
    <TTGlyph name="E" xMin="0" yMin="0" xMax="1024" yMax="1536">
      <contour>
        <pt x="1024" y="1536" on="1"/>
        <pt x="1024" y="0" on="1"/>
        <pt x="0" y="0" on="1"/>
        <pt x="0" y="1536" on="1"/>
      </contour>
      <contour>
        <pt x="1024" y="1536" on="1"/>
        <pt x="1024" y="0" on="1"/>
        <pt x="0" y="0" on="1"/>
        <pt x="0" y="1536" on="1"/>
      </contour>
    </TTGlyph>
    <TTGlyph name="Eacute" xMin="0" yMin="0" xMax="1024" yMax="1536">
      <contour>
        <pt x="1024" y="1536" on="1"/>
        <pt x="1024" y="0" on="1"/>
        <pt x="0" y="0" on="1"/>
        <pt x="0" y="1536" on="1"/>
      </contour>
      <contour>
        <pt x="1024" y="1536" on="1"/>
        <pt x="1024" y="0" on="1"/>
        <pt x="0" y="0" on="1"/>
        <pt x="0" y="1536" on="1"/>
      </contour>
    </TTGlyph>
    <TTGlyph name="Ecircumflex" xMin="0" yMin="0" xMax="1024" yMax="1536">
      <contour>
        <pt x="1024" y="1536" on="1"/>
        <pt x="1024" y="0" on="1"/>
        <pt x="0" y="0" on="1"/>
        <pt x="0" y="1536" on="1"/>
      </contour>
      <contour>
        <pt x="1024" y="1536" on="1"/>
        <pt x="1024" y="0" on="1"/>
        <pt x="0" y="0" on="1"/>
        <pt x="0" y="1536" on="1"/>
      </contour>
    </TTGlyph>
    <TTGlyph name="Edieresis" xMin="0" yMin="0" xMax="1024" yMax="1536">
      <contour>
        <pt x="1024" y="1536" on="1"/>
        <pt x="1024" y="0" on="1"/>
        <pt x="0" y="0" on="1"/>
        <pt x="0" y="1536" on="1"/>
      </contour>
      <contour>
        <pt x="1024" y="1536" on="1"/>
        <pt x="1024" y="0" on="1"/>
        <pt x="0" y="0" on="1"/>
        <pt x="0" y="1536" on="1"/>
      </contour>
    </TTGlyph>
    <TTGlyph name="Egrave" xMin="0" yMin="0" xMax="1024" yMax="1536">
      <contour>
        <pt x="1024" y="1536" on="1"/>
        <pt x="1024" y="0" on="1"/>
        <pt x="0" y="0" on="1"/>
        <pt x="0" y="1536" on="1"/>
      </contour>
      <contour>
        <pt x="1024" y="1536" on="1"/>
        <pt x="1024" y="0" on="1"/>
        <pt x="0" y="0" on="1"/>
        <pt x="0" y="1536" on="1"/>
      </contour>
    </TTGlyph>
    <TTGlyph name="Euro" xMin="0" yMin="0" xMax="1024" yMax="1536">
      <contour>
        <pt x="1024" y="1536" on="1"/>
        <pt x="1024" y="0" on="1"/>
        <pt x="0" y="0" on="1"/>
        <pt x="0" y="1536" on="1"/>
      </contour>
      <contour>
        <pt x="1024" y="1536" on="1"/>
        <pt x="1024" y="0" on="1"/>
        <pt x="0" y="0" on="1"/>
        <pt x="0" y="1536" on="1"/>
      </contour>
    </TTGlyph>
    <TTGlyph name="F" xMin="0" yMin="0" xMax="1024" yMax="1536">
      <contour>
        <pt x="1024" y="1536" on="1"/>
        <pt x="1024" y="0" on="1"/>
        <pt x="0" y="0" on="1"/>
        <pt x="0" y="1536" on="1"/>
      </contour>
      <contour>
        <pt x="1024" y="1536" on="1"/>
        <pt x="1024" y="0" on="1"/>
        <pt x="0" y="0" on="1"/>
        <pt x="0" y="1536" on="1"/>
      </contour>
    </TTGlyph>
    <TTGlyph name="G" xMin="0" yMin="0" xMax="1024" yMax="1536">
      <contour>
        <pt x="1024" y="1536" on="1"/>
        <pt x="1024" y="0" on="1"/>
        <pt x="0" y="0" on="1"/>
        <pt x="0" y="1536" on="1"/>
      </contour>
      <contour>
        <pt x="1024" y="1536" on="1"/>
        <pt x="1024" y="0" on="1"/>
        <pt x="0" y="0" on="1"/>
        <pt x="0" y="1536" on="1"/>
      </contour>
    </TTGlyph>
    <TTGlyph name="H" xMin="0" yMin="0" xMax="1024" yMax="1536">
      <contour>
        <pt x="1024" y="1536" on="1"/>
        <pt x="1024" y="0" on="1"/>
        <pt x="0" y="0" on="1"/>
        <pt x="0" y="1536" on="1"/>
      </contour>
      <contour>
        <pt x="1024" y="1536" on="1"/>
        <pt x="1024" y="0" on="1"/>
        <pt x="0" y="0" on="1"/>
        <pt x="0" y="1536" on="1"/>
      </contour>
    </TTGlyph>
    <TTGlyph name="I" xMin="0" yMin="0" xMax="1024" yMax="1536">
      <contour>
        <pt x="1024" y="1536" on="1"/>
        <pt x="1024" y="0" on="1"/>
        <pt x="0" y="0" on="1"/>
        <pt x="0" y="1536" on="1"/>
      </contour>
      <contour>
        <pt x="1024" y="1536" on="1"/>
        <pt x="1024" y="0" on="1"/>
        <pt x="0" y="0" on="1"/>
        <pt x="0" y="1536" on="1"/>
      </contour>
    </TTGlyph>
    <TTGlyph name="Iacute" xMin="0" yMin="0" xMax="1024" yMax="1536">
      <contour>
        <pt x="1024" y="1536" on="1"/>
        <pt x="1024" y="0" on="1"/>
        <pt x="0" y="0" on="1"/>
        <pt x="0" y="1536" on="1"/>
      </contour>
      <contour>
        <pt x="1024" y="1536" on="1"/>
        <pt x="1024" y="0" on="1"/>
        <pt x="0" y="0" on="1"/>
        <pt x="0" y="1536" on="1"/>
      </contour>
    </TTGlyph>
    <TTGlyph name="Icircumflex" xMin="0" yMin="0" xMax="1024" yMax="1536">
      <contour>
        <pt x="1024" y="1536" on="1"/>
        <pt x="1024" y="0" on="1"/>
        <pt x="0" y="0" on="1"/>
        <pt x="0" y="1536" on="1"/>
      </contour>
      <contour>
        <pt x="1024" y="1536" on="1"/>
        <pt x="1024" y="0" on="1"/>
        <pt x="0" y="0" on="1"/>
        <pt x="0" y="1536" on="1"/>
      </contour>
    </TTGlyph>
    <TTGlyph name="Idieresis" xMin="0" yMin="0" xMax="1024" yMax="1536">
      <contour>
        <pt x="1024" y="1536" on="1"/>
        <pt x="1024" y="0" on="1"/>
        <pt x="0" y="0" on="1"/>
        <pt x="0" y="1536" on="1"/>
      </contour>
      <contour>
        <pt x="1024" y="1536" on="1"/>
        <pt x="1024" y="0" on="1"/>
        <pt x="0" y="0" on="1"/>
        <pt x="0" y="1536" on="1"/>
      </contour>
    </TTGlyph>
    <TTGlyph name="Igrave" xMin="0" yMin="0" xMax="1024" yMax="1536">
      <contour>
        <pt x="1024" y="1536" on="1"/>
        <pt x="1024" y="0" on="1"/>
        <pt x="0" y="0" on="1"/>
        <pt x="0" y="1536" on="1"/>
      </contour>
      <contour>
        <pt x="1024" y="1536" on="1"/>
        <pt x="1024" y="0" on="1"/>
        <pt x="0" y="0" on="1"/>
        <pt x="0" y="1536" on="1"/>
      </contour>
    </TTGlyph>
    <TTGlyph name="J" xMin="0" yMin="0" xMax="1024" yMax="1536">
      <contour>
        <pt x="1024" y="1536" on="1"/>
        <pt x="1024" y="0" on="1"/>
        <pt x="0" y="0" on="1"/>
        <pt x="0" y="1536" on="1"/>
      </contour>
      <contour>
        <pt x="1024" y="1536" on="1"/>
        <pt x="1024" y="0" on="1"/>
        <pt x="0" y="0" on="1"/>
        <pt x="0" y="1536" on="1"/>
      </contour>
    </TTGlyph>
    <TTGlyph name="K" xMin="0" yMin="0" xMax="1024" yMax="1536">
      <contour>
        <pt x="1024" y="1536" on="1"/>
        <pt x="1024" y="0" on="1"/>
        <pt x="0" y="0" on="1"/>
        <pt x="0" y="1536" on="1"/>
      </contour>
      <contour>
        <pt x="1024" y="1536" on="1"/>
        <pt x="1024" y="0" on="1"/>
        <pt x="0" y="0" on="1"/>
        <pt x="0" y="1536" on="1"/>
      </contour>
    </TTGlyph>
    <TTGlyph name="L" xMin="0" yMin="0" xMax="1024" yMax="1536">
      <contour>
        <pt x="1024" y="1536" on="1"/>
        <pt x="1024" y="0" on="1"/>
        <pt x="0" y="0" on="1"/>
        <pt x="0" y="1536" on="1"/>
      </contour>
      <contour>
        <pt x="1024" y="1536" on="1"/>
        <pt x="1024" y="0" on="1"/>
        <pt x="0" y="0" on="1"/>
        <pt x="0" y="1536" on="1"/>
      </contour>
    </TTGlyph>
    <TTGlyph name="M" xMin="0" yMin="0" xMax="1024" yMax="1536">
      <contour>
        <pt x="1024" y="1536" on="1"/>
        <pt x="1024" y="0" on="1"/>
        <pt x="0" y="0" on="1"/>
        <pt x="0" y="1536" on="1"/>
      </contour>
      <contour>
        <pt x="1024" y="1536" on="1"/>
        <pt x="1024" y="0" on="1"/>
        <pt x="0" y="0" on="1"/>
        <pt x="0" y="1536" on="1"/>
      </contour>
    </TTGlyph>
    <TTGlyph name="N" xMin="0" yMin="0" xMax="1024" yMax="1536">
      <contour>
        <pt x="1024" y="1536" on="1"/>
        <pt x="1024" y="0" on="1"/>
        <pt x="0" y="0" on="1"/>
        <pt x="0" y="1536" on="1"/>
      </contour>
      <contour>
        <pt x="1024" y="1536" on="1"/>
        <pt x="1024" y="0" on="1"/>
        <pt x="0" y="0" on="1"/>
        <pt x="0" y="1536" on="1"/>
      </contour>
    </TTGlyph>
    <TTGlyph name="Ntilde" xMin="0" yMin="0" xMax="1024" yMax="1536">
      <contour>
        <pt x="1024" y="1536" on="1"/>
        <pt x="1024" y="0" on="1"/>
        <pt x="0" y="0" on="1"/>
        <pt x="0" y="1536" on="1"/>
      </contour>
      <contour>
        <pt x="1024" y="1536" on="1"/>
        <pt x="1024" y="0" on="1"/>
        <pt x="0" y="0" on="1"/>
        <pt x="0" y="1536" on="1"/>
      </contour>
    </TTGlyph>
    <TTGlyph name="O" xMin="0" yMin="0" xMax="1024" yMax="1536">
      <contour>
        <pt x="1024" y="1536" on="1"/>
        <pt x="1024" y="0" on="1"/>
        <pt x="0" y="0" on="1"/>
        <pt x="0" y="1536" on="1"/>
      </contour>
      <contour>
        <pt x="1024" y="1536" on="1"/>
        <pt x="1024" y="0" on="1"/>
        <pt x="0" y="0" on="1"/>
        <pt x="0" y="1536" on="1"/>
      </contour>
    </TTGlyph>
    <TTGlyph name="OE" xMin="0" yMin="0" xMax="1024" yMax="1536">
      <contour>
        <pt x="1024" y="1536" on="1"/>
        <pt x="1024" y="0" on="1"/>
        <pt x="0" y="0" on="1"/>
        <pt x="0" y="1536" on="1"/>
      </contour>
      <contour>
        <pt x="1024" y="1536" on="1"/>
        <pt x="1024" y="0" on="1"/>
        <pt x="0" y="0" on="1"/>
        <pt x="0" y="1536" on="1"/>
      </contour>
    </TTGlyph>
    <TTGlyph name="Oacute" xMin="0" yMin="0" xMax="1024" yMax="1536">
      <contour>
        <pt x="1024" y="1536" on="1"/>
        <pt x="1024" y="0" on="1"/>
        <pt x="0" y="0" on="1"/>
        <pt x="0" y="1536" on="1"/>
      </contour>
      <contour>
        <pt x="1024" y="1536" on="1"/>
        <pt x="1024" y="0" on="1"/>
        <pt x="0" y="0" on="1"/>
        <pt x="0" y="1536" on="1"/>
      </contour>
    </TTGlyph>
    <TTGlyph name="Ocircumflex" xMin="0" yMin="0" xMax="1024" yMax="1536">
      <contour>
        <pt x="1024" y="1536" on="1"/>
        <pt x="1024" y="0" on="1"/>
        <pt x="0" y="0" on="1"/>
        <pt x="0" y="1536" on="1"/>
      </contour>
      <contour>
        <pt x="1024" y="1536" on="1"/>
        <pt x="1024" y="0" on="1"/>
        <pt x="0" y="0" on="1"/>
        <pt x="0" y="1536" on="1"/>
      </contour>
    </TTGlyph>
    <TTGlyph name="Odieresis" xMin="0" yMin="0" xMax="1024" yMax="1536">
      <contour>
        <pt x="1024" y="1536" on="1"/>
        <pt x="1024" y="0" on="1"/>
        <pt x="0" y="0" on="1"/>
        <pt x="0" y="1536" on="1"/>
      </contour>
      <contour>
        <pt x="1024" y="1536" on="1"/>
        <pt x="1024" y="0" on="1"/>
        <pt x="0" y="0" on="1"/>
        <pt x="0" y="1536" on="1"/>
      </contour>
    </TTGlyph>
    <TTGlyph name="Ograve" xMin="0" yMin="0" xMax="1024" yMax="1536">
      <contour>
        <pt x="1024" y="1536" on="1"/>
        <pt x="1024" y="0" on="1"/>
        <pt x="0" y="0" on="1"/>
        <pt x="0" y="1536" on="1"/>
      </contour>
      <contour>
        <pt x="1024" y="1536" on="1"/>
        <pt x="1024" y="0" on="1"/>
        <pt x="0" y="0" on="1"/>
        <pt x="0" y="1536" on="1"/>
      </contour>
    </TTGlyph>
    <TTGlyph name="Oslash" xMin="0" yMin="0" xMax="1024" yMax="1536">
      <contour>
        <pt x="1024" y="1536" on="1"/>
        <pt x="1024" y="0" on="1"/>
        <pt x="0" y="0" on="1"/>
        <pt x="0" y="1536" on="1"/>
      </contour>
      <contour>
        <pt x="1024" y="1536" on="1"/>
        <pt x="1024" y="0" on="1"/>
        <pt x="0" y="0" on="1"/>
        <pt x="0" y="1536" on="1"/>
      </contour>
    </TTGlyph>
    <TTGlyph name="Otilde" xMin="0" yMin="0" xMax="1024" yMax="1536">
      <contour>
        <pt x="1024" y="1536" on="1"/>
        <pt x="1024" y="0" on="1"/>
        <pt x="0" y="0" on="1"/>
        <pt x="0" y="1536" on="1"/>
      </contour>
      <contour>
        <pt x="1024" y="1536" on="1"/>
        <pt x="1024" y="0" on="1"/>
        <pt x="0" y="0" on="1"/>
        <pt x="0" y="1536" on="1"/>
      </contour>
    </TTGlyph>
    <TTGlyph name="P" xMin="0" yMin="0" xMax="1024" yMax="1536">
      <contour>
        <pt x="1024" y="1536" on="1"/>
        <pt x="1024" y="0" on="1"/>
        <pt x="0" y="0" on="1"/>
        <pt x="0" y="1536" on="1"/>
      </contour>
      <contour>
        <pt x="1024" y="1536" on="1"/>
        <pt x="1024" y="0" on="1"/>
        <pt x="0" y="0" on="1"/>
        <pt x="0" y="1536" on="1"/>
      </contour>
    </TTGlyph>
    <TTGlyph name="Q" xMin="0" yMin="0" xMax="1024" yMax="1536">
      <contour>
        <pt x="1024" y="1536" on="1"/>
        <pt x="1024" y="0" on="1"/>
        <pt x="0" y="0" on="1"/>
        <pt x="0" y="1536" on="1"/>
      </contour>
      <contour>
        <pt x="1024" y="1536" on="1"/>
        <pt x="1024" y="0" on="1"/>
        <pt x="0" y="0" on="1"/>
        <pt x="0" y="1536" on="1"/>
      </contour>
    </TTGlyph>
    <TTGlyph name="R" xMin="0" yMin="0" xMax="1024" yMax="1536">
      <contour>
        <pt x="1024" y="1536" on="1"/>
        <pt x="1024" y="0" on="1"/>
        <pt x="0" y="0" on="1"/>
        <pt x="0" y="1536" on="1"/>
      </contour>
      <contour>
        <pt x="1024" y="1536" on="1"/>
        <pt x="1024" y="0" on="1"/>
        <pt x="0" y="0" on="1"/>
        <pt x="0" y="1536" on="1"/>
      </contour>
    </TTGlyph>
    <TTGlyph name="S" xMin="0" yMin="0" xMax="1024" yMax="1536">
      <contour>
        <pt x="1024" y="1536" on="1"/>
        <pt x="1024" y="0" on="1"/>
        <pt x="0" y="0" on="1"/>
        <pt x="0" y="1536" on="1"/>
      </contour>
      <contour>
        <pt x="1024" y="1536" on="1"/>
        <pt x="1024" y="0" on="1"/>
        <pt x="0" y="0" on="1"/>
        <pt x="0" y="1536" on="1"/>
      </contour>
    </TTGlyph>
    <TTGlyph name="T" xMin="0" yMin="0" xMax="1024" yMax="1536">
      <contour>
        <pt x="1024" y="1536" on="1"/>
        <pt x="1024" y="0" on="1"/>
        <pt x="0" y="0" on="1"/>
        <pt x="0" y="1536" on="1"/>
      </contour>
      <contour>
        <pt x="1024" y="1536" on="1"/>
        <pt x="1024" y="0" on="1"/>
        <pt x="0" y="0" on="1"/>
        <pt x="0" y="1536" on="1"/>
      </contour>
    </TTGlyph>
    <TTGlyph name="U" xMin="0" yMin="0" xMax="1024" yMax="1536">
      <contour>
        <pt x="1024" y="1536" on="1"/>
        <pt x="1024" y="0" on="1"/>
        <pt x="0" y="0" on="1"/>
        <pt x="0" y="1536" on="1"/>
      </contour>
      <contour>
        <pt x="1024" y="1536" on="1"/>
        <pt x="1024" y="0" on="1"/>
        <pt x="0" y="0" on="1"/>
        <pt x="0" y="1536" on="1"/>
      </contour>
    </TTGlyph>
    <TTGlyph name="Uacute" xMin="0" yMin="0" xMax="1024" yMax="1536">
      <contour>
        <pt x="1024" y="1536" on="1"/>
        <pt x="1024" y="0" on="1"/>
        <pt x="0" y="0" on="1"/>
        <pt x="0" y="1536" on="1"/>
      </contour>
      <contour>
        <pt x="1024" y="1536" on="1"/>
        <pt x="1024" y="0" on="1"/>
        <pt x="0" y="0" on="1"/>
        <pt x="0" y="1536" on="1"/>
      </contour>
    </TTGlyph>
    <TTGlyph name="Ucircumflex" xMin="0" yMin="0" xMax="1024" yMax="1536">
      <contour>
        <pt x="1024" y="1536" on="1"/>
        <pt x="1024" y="0" on="1"/>
        <pt x="0" y="0" on="1"/>
        <pt x="0" y="1536" on="1"/>
      </contour>
      <contour>
        <pt x="1024" y="1536" on="1"/>
        <pt x="1024" y="0" on="1"/>
        <pt x="0" y="0" on="1"/>
        <pt x="0" y="1536" on="1"/>
      </contour>
    </TTGlyph>
    <TTGlyph name="Udieresis" xMin="0" yMin="0" xMax="1024" yMax="1536">
      <contour>
        <pt x="1024" y="1536" on="1"/>
        <pt x="1024" y="0" on="1"/>
        <pt x="0" y="0" on="1"/>
        <pt x="0" y="1536" on="1"/>
      </contour>
      <contour>
        <pt x="1024" y="1536" on="1"/>
        <pt x="1024" y="0" on="1"/>
        <pt x="0" y="0" on="1"/>
        <pt x="0" y="1536" on="1"/>
      </contour>
    </TTGlyph>
    <TTGlyph name="Ugrave" xMin="0" yMin="0" xMax="1024" yMax="1536">
      <contour>
        <pt x="1024" y="1536" on="1"/>
        <pt x="1024" y="0" on="1"/>
        <pt x="0" y="0" on="1"/>
        <pt x="0" y="1536" on="1"/>
      </contour>
      <contour>
        <pt x="1024" y="1536" on="1"/>
        <pt x="1024" y="0" on="1"/>
        <pt x="0" y="0" on="1"/>
        <pt x="0" y="1536" on="1"/>
      </contour>
    </TTGlyph>
    <TTGlyph name="V" xMin="0" yMin="0" xMax="1024" yMax="1536">
      <contour>
        <pt x="1024" y="1536" on="1"/>
        <pt x="1024" y="0" on="1"/>
        <pt x="0" y="0" on="1"/>
        <pt x="0" y="1536" on="1"/>
      </contour>
      <contour>
        <pt x="1024" y="1536" on="1"/>
        <pt x="1024" y="0" on="1"/>
        <pt x="0" y="0" on="1"/>
        <pt x="0" y="1536" on="1"/>
      </contour>
    </TTGlyph>
    <TTGlyph name="W" xMin="0" yMin="0" xMax="1024" yMax="1536">
      <contour>
        <pt x="1024" y="1536" on="1"/>
        <pt x="1024" y="0" on="1"/>
        <pt x="0" y="0" on="1"/>
        <pt x="0" y="1536" on="1"/>
      </contour>
      <contour>
        <pt x="1024" y="1536" on="1"/>
        <pt x="1024" y="0" on="1"/>
        <pt x="0" y="0" on="1"/>
        <pt x="0" y="1536" on="1"/>
      </contour>
    </TTGlyph>
    <TTGlyph name="X" xMin="0" yMin="0" xMax="1024" yMax="1536">
      <contour>
        <pt x="1024" y="1536" on="1"/>
        <pt x="1024" y="0" on="1"/>
        <pt x="0" y="0" on="1"/>
        <pt x="0" y="1536" on="1"/>
      </contour>
      <contour>
        <pt x="1024" y="1536" on="1"/>
        <pt x="1024" y="0" on="1"/>
        <pt x="0" y="0" on="1"/>
        <pt x="0" y="1536" on="1"/>
      </contour>
    </TTGlyph>
    <TTGlyph name="Y" xMin="0" yMin="0" xMax="1024" yMax="1536">
      <contour>
        <pt x="1024" y="1536" on="1"/>
        <pt x="1024" y="0" on="1"/>
        <pt x="0" y="0" on="1"/>
        <pt x="0" y="1536" on="1"/>
      </contour>
      <contour>
        <pt x="1024" y="1536" on="1"/>
        <pt x="1024" y="0" on="1"/>
        <pt x="0" y="0" on="1"/>
        <pt x="0" y="1536" on="1"/>
      </contour>
    </TTGlyph>
    <TTGlyph name="Ydieresis" xMin="0" yMin="0" xMax="1024" yMax="1536">
      <contour>
        <pt x="1024" y="1536" on="1"/>
        <pt x="1024" y="0" on="1"/>
        <pt x="0" y="0" on="1"/>
        <pt x="0" y="1536" on="1"/>
      </contour>
      <contour>
        <pt x="1024" y="1536" on="1"/>
        <pt x="1024" y="0" on="1"/>
        <pt x="0" y="0" on="1"/>
        <pt x="0" y="1536" on="1"/>
      </contour>
    </TTGlyph>
    <TTGlyph name="Z" xMin="0" yMin="0" xMax="1024" yMax="1536">
      <contour>
        <pt x="1024" y="1536" on="1"/>
        <pt x="1024" y="0" on="1"/>
        <pt x="0" y="0" on="1"/>
        <pt x="0" y="1536" on="1"/>
      </contour>
      <contour>
        <pt x="1024" y="1536" on="1"/>
        <pt x="1024" y="0" on="1"/>
        <pt x="0" y="0" on="1"/>
        <pt x="0" y="1536" on="1"/>
      </contour>
    </TTGlyph>
    <TTGlyph name="a" xMin="0" yMin="0" xMax="1024" yMax="1536">
      <contour>
        <pt x="1024" y="1536" on="1"/>
        <pt x="1024" y="0" on="1"/>
        <pt x="0" y="0" on="1"/>
        <pt x="0" y="1536" on="1"/>
      </contour>
      <contour>
        <pt x="1024" y="1536" on="1"/>
        <pt x="1024" y="0" on="1"/>
        <pt x="0" y="0" on="1"/>
        <pt x="0" y="1536" on="1"/>
      </contour>
    </TTGlyph>
    <TTGlyph name="aacute" xMin="0" yMin="0" xMax="1024" yMax="1536">
      <contour>
        <pt x="1024" y="1536" on="1"/>
        <pt x="1024" y="0" on="1"/>
        <pt x="0" y="0" on="1"/>
        <pt x="0" y="1536" on="1"/>
      </contour>
      <contour>
        <pt x="1024" y="1536" on="1"/>
        <pt x="1024" y="0" on="1"/>
        <pt x="0" y="0" on="1"/>
        <pt x="0" y="1536" on="1"/>
      </contour>
    </TTGlyph>
    <TTGlyph name="acircumflex" xMin="0" yMin="0" xMax="1024" yMax="1536">
      <contour>
        <pt x="1024" y="1536" on="1"/>
        <pt x="1024" y="0" on="1"/>
        <pt x="0" y="0" on="1"/>
        <pt x="0" y="1536" on="1"/>
      </contour>
      <contour>
        <pt x="1024" y="1536" on="1"/>
        <pt x="1024" y="0" on="1"/>
        <pt x="0" y="0" on="1"/>
        <pt x="0" y="1536" on="1"/>
      </contour>
    </TTGlyph>
    <TTGlyph name="acute" xMin="0" yMin="0" xMax="1024" yMax="1536">
      <contour>
        <pt x="1024" y="1536" on="1"/>
        <pt x="1024" y="0" on="1"/>
        <pt x="0" y="0" on="1"/>
        <pt x="0" y="1536" on="1"/>
      </contour>
      <contour>
        <pt x="1024" y="1536" on="1"/>
        <pt x="1024" y="0" on="1"/>
        <pt x="0" y="0" on="1"/>
        <pt x="0" y="1536" on="1"/>
      </contour>
    </TTGlyph>
    <TTGlyph name="adieresis" xMin="0" yMin="0" xMax="1024" yMax="1536">
      <contour>
        <pt x="1024" y="1536" on="1"/>
        <pt x="1024" y="0" on="1"/>
        <pt x="0" y="0" on="1"/>
        <pt x="0" y="1536" on="1"/>
      </contour>
      <contour>
        <pt x="1024" y="1536" on="1"/>
        <pt x="1024" y="0" on="1"/>
        <pt x="0" y="0" on="1"/>
        <pt x="0" y="1536" on="1"/>
      </contour>
    </TTGlyph>
    <TTGlyph name="ae" xMin="0" yMin="0" xMax="1024" yMax="1536">
      <contour>
        <pt x="1024" y="1536" on="1"/>
        <pt x="1024" y="0" on="1"/>
        <pt x="0" y="0" on="1"/>
        <pt x="0" y="1536" on="1"/>
      </contour>
      <contour>
        <pt x="1024" y="1536" on="1"/>
        <pt x="1024" y="0" on="1"/>
        <pt x="0" y="0" on="1"/>
        <pt x="0" y="1536" on="1"/>
      </contour>
    </TTGlyph>
    <TTGlyph name="agrave" xMin="0" yMin="0" xMax="1024" yMax="1536">
      <contour>
        <pt x="1024" y="1536" on="1"/>
        <pt x="1024" y="0" on="1"/>
        <pt x="0" y="0" on="1"/>
        <pt x="0" y="1536" on="1"/>
      </contour>
      <contour>
        <pt x="1024" y="1536" on="1"/>
        <pt x="1024" y="0" on="1"/>
        <pt x="0" y="0" on="1"/>
        <pt x="0" y="1536" on="1"/>
      </contour>
    </TTGlyph>
    <TTGlyph name="ampersand" xMin="0" yMin="0" xMax="1024" yMax="1536">
      <contour>
        <pt x="1024" y="1536" on="1"/>
        <pt x="1024" y="0" on="1"/>
        <pt x="0" y="0" on="1"/>
        <pt x="0" y="1536" on="1"/>
      </contour>
      <contour>
        <pt x="1024" y="1536" on="1"/>
        <pt x="1024" y="0" on="1"/>
        <pt x="0" y="0" on="1"/>
        <pt x="0" y="1536" on="1"/>
      </contour>
    </TTGlyph>
    <TTGlyph name="aring" xMin="0" yMin="0" xMax="1024" yMax="1536">
      <contour>
        <pt x="1024" y="1536" on="1"/>
        <pt x="1024" y="0" on="1"/>
        <pt x="0" y="0" on="1"/>
        <pt x="0" y="1536" on="1"/>
      </contour>
      <contour>
        <pt x="1024" y="1536" on="1"/>
        <pt x="1024" y="0" on="1"/>
        <pt x="0" y="0" on="1"/>
        <pt x="0" y="1536" on="1"/>
      </contour>
    </TTGlyph>
    <TTGlyph name="asciicircum" xMin="0" yMin="0" xMax="1024" yMax="1536">
      <contour>
        <pt x="1024" y="1536" on="1"/>
        <pt x="1024" y="0" on="1"/>
        <pt x="0" y="0" on="1"/>
        <pt x="0" y="1536" on="1"/>
      </contour>
      <contour>
        <pt x="1024" y="1536" on="1"/>
        <pt x="1024" y="0" on="1"/>
        <pt x="0" y="0" on="1"/>
        <pt x="0" y="1536" on="1"/>
      </contour>
    </TTGlyph>
    <TTGlyph name="asciitilde" xMin="0" yMin="0" xMax="1024" yMax="1536">
      <contour>
        <pt x="1024" y="1536" on="1"/>
        <pt x="1024" y="0" on="1"/>
        <pt x="0" y="0" on="1"/>
        <pt x="0" y="1536" on="1"/>
      </contour>
      <contour>
        <pt x="1024" y="1536" on="1"/>
        <pt x="1024" y="0" on="1"/>
        <pt x="0" y="0" on="1"/>
        <pt x="0" y="1536" on="1"/>
      </contour>
    </TTGlyph>
    <TTGlyph name="asterisk" xMin="0" yMin="0" xMax="1024" yMax="1536">
      <contour>
        <pt x="1024" y="1536" on="1"/>
        <pt x="1024" y="0" on="1"/>
        <pt x="0" y="0" on="1"/>
        <pt x="0" y="1536" on="1"/>
      </contour>
      <contour>
        <pt x="1024" y="1536" on="1"/>
        <pt x="1024" y="0" on="1"/>
        <pt x="0" y="0" on="1"/>
        <pt x="0" y="1536" on="1"/>
      </contour>
    </TTGlyph>
    <TTGlyph name="at" xMin="0" yMin="0" xMax="1024" yMax="1536">
      <contour>
        <pt x="1024" y="1536" on="1"/>
        <pt x="1024" y="0" on="1"/>
        <pt x="0" y="0" on="1"/>
        <pt x="0" y="1536" on="1"/>
      </contour>
      <contour>
        <pt x="1024" y="1536" on="1"/>
        <pt x="1024" y="0" on="1"/>
        <pt x="0" y="0" on="1"/>
        <pt x="0" y="1536" on="1"/>
      </contour>
    </TTGlyph>
    <TTGlyph name="atilde" xMin="0" yMin="0" xMax="1024" yMax="1536">
      <contour>
        <pt x="1024" y="1536" on="1"/>
        <pt x="1024" y="0" on="1"/>
        <pt x="0" y="0" on="1"/>
        <pt x="0" y="1536" on="1"/>
      </contour>
      <contour>
        <pt x="1024" y="1536" on="1"/>
        <pt x="1024" y="0" on="1"/>
        <pt x="0" y="0" on="1"/>
        <pt x="0" y="1536" on="1"/>
      </contour>
    </TTGlyph>
    <TTGlyph name="b" xMin="0" yMin="0" xMax="1024" yMax="1536">
      <contour>
        <pt x="1024" y="1536" on="1"/>
        <pt x="1024" y="0" on="1"/>
        <pt x="0" y="0" on="1"/>
        <pt x="0" y="1536" on="1"/>
      </contour>
      <contour>
        <pt x="1024" y="1536" on="1"/>
        <pt x="1024" y="0" on="1"/>
        <pt x="0" y="0" on="1"/>
        <pt x="0" y="1536" on="1"/>
      </contour>
    </TTGlyph>
    <TTGlyph name="backslash" xMin="0" yMin="0" xMax="1024" yMax="1536">
      <contour>
        <pt x="1024" y="1536" on="1"/>
        <pt x="1024" y="0" on="1"/>
        <pt x="0" y="0" on="1"/>
        <pt x="0" y="1536" on="1"/>
      </contour>
      <contour>
        <pt x="1024" y="1536" on="1"/>
        <pt x="1024" y="0" on="1"/>
        <pt x="0" y="0" on="1"/>
        <pt x="0" y="1536" on="1"/>
      </contour>
    </TTGlyph>
    <TTGlyph name="bar" xMin="0" yMin="0" xMax="1024" yMax="1536">
      <contour>
        <pt x="1024" y="1536" on="1"/>
        <pt x="1024" y="0" on="1"/>
        <pt x="0" y="0" on="1"/>
        <pt x="0" y="1536" on="1"/>
      </contour>
      <contour>
        <pt x="1024" y="1536" on="1"/>
        <pt x="1024" y="0" on="1"/>
        <pt x="0" y="0" on="1"/>
        <pt x="0" y="1536" on="1"/>
      </contour>
    </TTGlyph>
    <TTGlyph name="braceleft" xMin="0" yMin="0" xMax="1024" yMax="1536">
      <contour>
        <pt x="1024" y="1536" on="1"/>
        <pt x="1024" y="0" on="1"/>
        <pt x="0" y="0" on="1"/>
        <pt x="0" y="1536" on="1"/>
      </contour>
      <contour>
        <pt x="1024" y="1536" on="1"/>
        <pt x="1024" y="0" on="1"/>
        <pt x="0" y="0" on="1"/>
        <pt x="0" y="1536" on="1"/>
      </contour>
    </TTGlyph>
    <TTGlyph name="braceright" xMin="0" yMin="0" xMax="1024" yMax="1536">
      <contour>
        <pt x="1024" y="1536" on="1"/>
        <pt x="1024" y="0" on="1"/>
        <pt x="0" y="0" on="1"/>
        <pt x="0" y="1536" on="1"/>
      </contour>
      <contour>
        <pt x="1024" y="1536" on="1"/>
        <pt x="1024" y="0" on="1"/>
        <pt x="0" y="0" on="1"/>
        <pt x="0" y="1536" on="1"/>
      </contour>
    </TTGlyph>
    <TTGlyph name="bracketleft" xMin="0" yMin="0" xMax="1024" yMax="1536">
      <contour>
        <pt x="1024" y="1536" on="1"/>
        <pt x="1024" y="0" on="1"/>
        <pt x="0" y="0" on="1"/>
        <pt x="0" y="1536" on="1"/>
      </contour>
      <contour>
        <pt x="1024" y="1536" on="1"/>
        <pt x="1024" y="0" on="1"/>
        <pt x="0" y="0" on="1"/>
        <pt x="0" y="1536" on="1"/>
      </contour>
    </TTGlyph>
    <TTGlyph name="bracketright" xMin="0" yMin="0" xMax="1024" yMax="1536">
      <contour>
        <pt x="1024" y="1536" on="1"/>
        <pt x="1024" y="0" on="1"/>
        <pt x="0" y="0" on="1"/>
        <pt x="0" y="1536" on="1"/>
      </contour>
      <contour>
        <pt x="1024" y="1536" on="1"/>
        <pt x="1024" y="0" on="1"/>
        <pt x="0" y="0" on="1"/>
        <pt x="0" y="1536" on="1"/>
      </contour>
    </TTGlyph>
    <TTGlyph name="bullet" xMin="0" yMin="0" xMax="1024" yMax="1536">
      <contour>
        <pt x="1024" y="1536" on="1"/>
        <pt x="1024" y="0" on="1"/>
        <pt x="0" y="0" on="1"/>
        <pt x="0" y="1536" on="1"/>
      </contour>
      <contour>
        <pt x="1024" y="1536" on="1"/>
        <pt x="1024" y="0" on="1"/>
        <pt x="0" y="0" on="1"/>
        <pt x="0" y="1536" on="1"/>
      </contour>
    </TTGlyph>
    <TTGlyph name="c" xMin="0" yMin="0" xMax="1024" yMax="1536">
      <contour>
        <pt x="1024" y="1536" on="1"/>
        <pt x="1024" y="0" on="1"/>
        <pt x="0" y="0" on="1"/>
        <pt x="0" y="1536" on="1"/>
      </contour>
      <contour>
        <pt x="1024" y="1536" on="1"/>
        <pt x="1024" y="0" on="1"/>
        <pt x="0" y="0" on="1"/>
        <pt x="0" y="1536" on="1"/>
      </contour>
    </TTGlyph>
    <TTGlyph name="ccedilla" xMin="0" yMin="0" xMax="1024" yMax="1536">
      <contour>
        <pt x="1024" y="1536" on="1"/>
        <pt x="1024" y="0" on="1"/>
        <pt x="0" y="0" on="1"/>
        <pt x="0" y="1536" on="1"/>
      </contour>
      <contour>
        <pt x="1024" y="1536" on="1"/>
        <pt x="1024" y="0" on="1"/>
        <pt x="0" y="0" on="1"/>
        <pt x="0" y="1536" on="1"/>
      </contour>
    </TTGlyph>
    <TTGlyph name="cedilla" xMin="0" yMin="0" xMax="1024" yMax="1536">
      <contour>
        <pt x="1024" y="1536" on="1"/>
        <pt x="1024" y="0" on="1"/>
        <pt x="0" y="0" on="1"/>
        <pt x="0" y="1536" on="1"/>
      </contour>
      <contour>
        <pt x="1024" y="1536" on="1"/>
        <pt x="1024" y="0" on="1"/>
        <pt x="0" y="0" on="1"/>
        <pt x="0" y="1536" on="1"/>
      </contour>
    </TTGlyph>
    <TTGlyph name="cent" xMin="0" yMin="0" xMax="1024" yMax="1536">
      <contour>
        <pt x="1024" y="1536" on="1"/>
        <pt x="1024" y="0" on="1"/>
        <pt x="0" y="0" on="1"/>
        <pt x="0" y="1536" on="1"/>
      </contour>
      <contour>
        <pt x="1024" y="1536" on="1"/>
        <pt x="1024" y="0" on="1"/>
        <pt x="0" y="0" on="1"/>
        <pt x="0" y="1536" on="1"/>
      </contour>
    </TTGlyph>
    <TTGlyph name="circumflex" xMin="0" yMin="0" xMax="1024" yMax="1536">
      <contour>
        <pt x="1024" y="1536" on="1"/>
        <pt x="1024" y="0" on="1"/>
        <pt x="0" y="0" on="1"/>
        <pt x="0" y="1536" on="1"/>
      </contour>
      <contour>
        <pt x="1024" y="1536" on="1"/>
        <pt x="1024" y="0" on="1"/>
        <pt x="0" y="0" on="1"/>
        <pt x="0" y="1536" on="1"/>
      </contour>
    </TTGlyph>
    <TTGlyph name="colon" xMin="0" yMin="0" xMax="1024" yMax="1536">
      <contour>
        <pt x="1024" y="1536" on="1"/>
        <pt x="1024" y="0" on="1"/>
        <pt x="0" y="0" on="1"/>
        <pt x="0" y="1536" on="1"/>
      </contour>
      <contour>
        <pt x="1024" y="1536" on="1"/>
        <pt x="1024" y="0" on="1"/>
        <pt x="0" y="0" on="1"/>
        <pt x="0" y="1536" on="1"/>
      </contour>
    </TTGlyph>
    <TTGlyph name="comma" xMin="0" yMin="0" xMax="1024" yMax="1536">
      <contour>
        <pt x="1024" y="1536" on="1"/>
        <pt x="1024" y="0" on="1"/>
        <pt x="0" y="0" on="1"/>
        <pt x="0" y="1536" on="1"/>
      </contour>
      <contour>
        <pt x="1024" y="1536" on="1"/>
        <pt x="1024" y="0" on="1"/>
        <pt x="0" y="0" on="1"/>
        <pt x="0" y="1536" on="1"/>
      </contour>
    </TTGlyph>
    <TTGlyph name="copyright" xMin="0" yMin="0" xMax="1024" yMax="1536">
      <contour>
        <pt x="1024" y="1536" on="1"/>
        <pt x="1024" y="0" on="1"/>
        <pt x="0" y="0" on="1"/>
        <pt x="0" y="1536" on="1"/>
      </contour>
      <contour>
        <pt x="1024" y="1536" on="1"/>
        <pt x="1024" y="0" on="1"/>
        <pt x="0" y="0" on="1"/>
        <pt x="0" y="1536" on="1"/>
      </contour>
    </TTGlyph>
    <TTGlyph name="d" xMin="0" yMin="0" xMax="1024" yMax="1536">
      <contour>
        <pt x="1024" y="1536" on="1"/>
        <pt x="1024" y="0" on="1"/>
        <pt x="0" y="0" on="1"/>
        <pt x="0" y="1536" on="1"/>
      </contour>
      <contour>
        <pt x="1024" y="1536" on="1"/>
        <pt x="1024" y="0" on="1"/>
        <pt x="0" y="0" on="1"/>
        <pt x="0" y="1536" on="1"/>
      </contour>
    </TTGlyph>
    <TTGlyph name="degree" xMin="0" yMin="0" xMax="1024" yMax="1536">
      <contour>
        <pt x="1024" y="1536" on="1"/>
        <pt x="1024" y="0" on="1"/>
        <pt x="0" y="0" on="1"/>
        <pt x="0" y="1536" on="1"/>
      </contour>
      <contour>
        <pt x="1024" y="1536" on="1"/>
        <pt x="1024" y="0" on="1"/>
        <pt x="0" y="0" on="1"/>
        <pt x="0" y="1536" on="1"/>
      </contour>
    </TTGlyph>
    <TTGlyph name="dieresis" xMin="0" yMin="0" xMax="1024" yMax="1536">
      <contour>
        <pt x="1024" y="1536" on="1"/>
        <pt x="1024" y="0" on="1"/>
        <pt x="0" y="0" on="1"/>
        <pt x="0" y="1536" on="1"/>
      </contour>
      <contour>
        <pt x="1024" y="1536" on="1"/>
        <pt x="1024" y="0" on="1"/>
        <pt x="0" y="0" on="1"/>
        <pt x="0" y="1536" on="1"/>
      </contour>
    </TTGlyph>
    <TTGlyph name="divide" xMin="0" yMin="0" xMax="1024" yMax="1536">
      <contour>
        <pt x="1024" y="1536" on="1"/>
        <pt x="1024" y="0" on="1"/>
        <pt x="0" y="0" on="1"/>
        <pt x="0" y="1536" on="1"/>
      </contour>
      <contour>
        <pt x="1024" y="1536" on="1"/>
        <pt x="1024" y="0" on="1"/>
        <pt x="0" y="0" on="1"/>
        <pt x="0" y="1536" on="1"/>
      </contour>
    </TTGlyph>
    <TTGlyph name="dollar" xMin="0" yMin="0" xMax="1024" yMax="1536">
      <contour>
        <pt x="1024" y="1536" on="1"/>
        <pt x="1024" y="0" on="1"/>
        <pt x="0" y="0" on="1"/>
        <pt x="0" y="1536" on="1"/>
      </contour>
      <contour>
        <pt x="1024" y="1536" on="1"/>
        <pt x="1024" y="0" on="1"/>
        <pt x="0" y="0" on="1"/>
        <pt x="0" y="1536" on="1"/>
      </contour>
    </TTGlyph>
    <TTGlyph name="e" xMin="0" yMin="0" xMax="1024" yMax="1536">
      <contour>
        <pt x="1024" y="1536" on="1"/>
        <pt x="1024" y="0" on="1"/>
        <pt x="0" y="0" on="1"/>
        <pt x="0" y="1536" on="1"/>
      </contour>
      <contour>
        <pt x="1024" y="1536" on="1"/>
        <pt x="1024" y="0" on="1"/>
        <pt x="0" y="0" on="1"/>
        <pt x="0" y="1536" on="1"/>
      </contour>
    </TTGlyph>
    <TTGlyph name="eacute" xMin="0" yMin="0" xMax="1024" yMax="1536">
      <contour>
        <pt x="1024" y="1536" on="1"/>
        <pt x="1024" y="0" on="1"/>
        <pt x="0" y="0" on="1"/>
        <pt x="0" y="1536" on="1"/>
      </contour>
      <contour>
        <pt x="1024" y="1536" on="1"/>
        <pt x="1024" y="0" on="1"/>
        <pt x="0" y="0" on="1"/>
        <pt x="0" y="1536" on="1"/>
      </contour>
    </TTGlyph>
    <TTGlyph name="ecircumflex" xMin="0" yMin="0" xMax="1024" yMax="1536">
      <contour>
        <pt x="1024" y="1536" on="1"/>
        <pt x="1024" y="0" on="1"/>
        <pt x="0" y="0" on="1"/>
        <pt x="0" y="1536" on="1"/>
      </contour>
      <contour>
        <pt x="1024" y="1536" on="1"/>
        <pt x="1024" y="0" on="1"/>
        <pt x="0" y="0" on="1"/>
        <pt x="0" y="1536" on="1"/>
      </contour>
    </TTGlyph>
    <TTGlyph name="edieresis" xMin="0" yMin="0" xMax="1024" yMax="1536">
      <contour>
        <pt x="1024" y="1536" on="1"/>
        <pt x="1024" y="0" on="1"/>
        <pt x="0" y="0" on="1"/>
        <pt x="0" y="1536" on="1"/>
      </contour>
      <contour>
        <pt x="1024" y="1536" on="1"/>
        <pt x="1024" y="0" on="1"/>
        <pt x="0" y="0" on="1"/>
        <pt x="0" y="1536" on="1"/>
      </contour>
    </TTGlyph>
    <TTGlyph name="egrave" xMin="0" yMin="0" xMax="1024" yMax="1536">
      <contour>
        <pt x="1024" y="1536" on="1"/>
        <pt x="1024" y="0" on="1"/>
        <pt x="0" y="0" on="1"/>
        <pt x="0" y="1536" on="1"/>
      </contour>
      <contour>
        <pt x="1024" y="1536" on="1"/>
        <pt x="1024" y="0" on="1"/>
        <pt x="0" y="0" on="1"/>
        <pt x="0" y="1536" on="1"/>
      </contour>
    </TTGlyph>
    <TTGlyph name="eight" xMin="0" yMin="0" xMax="1024" yMax="1536">
      <contour>
        <pt x="1024" y="1536" on="1"/>
        <pt x="1024" y="0" on="1"/>
        <pt x="0" y="0" on="1"/>
        <pt x="0" y="1536" on="1"/>
      </contour>
      <contour>
        <pt x="1024" y="1536" on="1"/>
        <pt x="1024" y="0" on="1"/>
        <pt x="0" y="0" on="1"/>
        <pt x="0" y="1536" on="1"/>
      </contour>
    </TTGlyph>
    <TTGlyph name="ellipsis" xMin="0" yMin="0" xMax="1024" yMax="1536">
      <contour>
        <pt x="1024" y="1536" on="1"/>
        <pt x="1024" y="0" on="1"/>
        <pt x="0" y="0" on="1"/>
        <pt x="0" y="1536" on="1"/>
      </contour>
      <contour>
        <pt x="1024" y="1536" on="1"/>
        <pt x="1024" y="0" on="1"/>
        <pt x="0" y="0" on="1"/>
        <pt x="0" y="1536" on="1"/>
      </contour>
    </TTGlyph>
    <TTGlyph name="emdash" xMin="0" yMin="0" xMax="1024" yMax="1536">
      <contour>
        <pt x="1024" y="1536" on="1"/>
        <pt x="1024" y="0" on="1"/>
        <pt x="0" y="0" on="1"/>
        <pt x="0" y="1536" on="1"/>
      </contour>
      <contour>
        <pt x="1024" y="1536" on="1"/>
        <pt x="1024" y="0" on="1"/>
        <pt x="0" y="0" on="1"/>
        <pt x="0" y="1536" on="1"/>
      </contour>
    </TTGlyph>
    <TTGlyph name="endash" xMin="0" yMin="0" xMax="1024" yMax="1536">
      <contour>
        <pt x="1024" y="1536" on="1"/>
        <pt x="1024" y="0" on="1"/>
        <pt x="0" y="0" on="1"/>
        <pt x="0" y="1536" on="1"/>
      </contour>
      <contour>
        <pt x="1024" y="1536" on="1"/>
        <pt x="1024" y="0" on="1"/>
        <pt x="0" y="0" on="1"/>
        <pt x="0" y="1536" on="1"/>
      </contour>
    </TTGlyph>
    <TTGlyph name="equal" xMin="0" yMin="0" xMax="1024" yMax="1536">
      <contour>
        <pt x="1024" y="1536" on="1"/>
        <pt x="1024" y="0" on="1"/>
        <pt x="0" y="0" on="1"/>
        <pt x="0" y="1536" on="1"/>
      </contour>
      <contour>
        <pt x="1024" y="1536" on="1"/>
        <pt x="1024" y="0" on="1"/>
        <pt x="0" y="0" on="1"/>
        <pt x="0" y="1536" on="1"/>
      </contour>
    </TTGlyph>
    <TTGlyph name="exclam" xMin="0" yMin="0" xMax="1024" yMax="1536">
      <contour>
        <pt x="1024" y="1536" on="1"/>
        <pt x="1024" y="0" on="1"/>
        <pt x="0" y="0" on="1"/>
        <pt x="0" y="1536" on="1"/>
      </contour>
      <contour>
        <pt x="1024" y="1536" on="1"/>
        <pt x="1024" y="0" on="1"/>
        <pt x="0" y="0" on="1"/>
        <pt x="0" y="1536" on="1"/>
      </contour>
    </TTGlyph>
    <TTGlyph name="exclamdown" xMin="0" yMin="0" xMax="1024" yMax="1536">
      <contour>
        <pt x="1024" y="1536" on="1"/>
        <pt x="1024" y="0" on="1"/>
        <pt x="0" y="0" on="1"/>
        <pt x="0" y="1536" on="1"/>
      </contour>
      <contour>
        <pt x="1024" y="1536" on="1"/>
        <pt x="1024" y="0" on="1"/>
        <pt x="0" y="0" on="1"/>
        <pt x="0" y="1536" on="1"/>
      </contour>
    </TTGlyph>
    <TTGlyph name="f" xMin="0" yMin="0" xMax="1024" yMax="1536">
      <contour>
        <pt x="1024" y="1536" on="1"/>
        <pt x="1024" y="0" on="1"/>
        <pt x="0" y="0" on="1"/>
        <pt x="0" y="1536" on="1"/>
      </contour>
      <contour>
        <pt x="1024" y="1536" on="1"/>
        <pt x="1024" y="0" on="1"/>
        <pt x="0" y="0" on="1"/>
        <pt x="0" y="1536" on="1"/>
      </contour>
    </TTGlyph>
    <TTGlyph name="figuredash" xMin="0" yMin="0" xMax="1024" yMax="1536">
      <contour>
        <pt x="1024" y="1536" on="1"/>
        <pt x="1024" y="0" on="1"/>
        <pt x="0" y="0" on="1"/>
        <pt x="0" y="1536" on="1"/>
      </contour>
      <contour>
        <pt x="1024" y="1536" on="1"/>
        <pt x="1024" y="0" on="1"/>
        <pt x="0" y="0" on="1"/>
        <pt x="0" y="1536" on="1"/>
      </contour>
    </TTGlyph>
    <TTGlyph name="five" xMin="0" yMin="0" xMax="1024" yMax="1536">
      <contour>
        <pt x="1024" y="1536" on="1"/>
        <pt x="1024" y="0" on="1"/>
        <pt x="0" y="0" on="1"/>
        <pt x="0" y="1536" on="1"/>
      </contour>
      <contour>
        <pt x="1024" y="1536" on="1"/>
        <pt x="1024" y="0" on="1"/>
        <pt x="0" y="0" on="1"/>
        <pt x="0" y="1536" on="1"/>
      </contour>
    </TTGlyph>
    <TTGlyph name="four" xMin="0" yMin="0" xMax="1024" yMax="1536">
      <contour>
        <pt x="1024" y="1536" on="1"/>
        <pt x="1024" y="0" on="1"/>
        <pt x="0" y="0" on="1"/>
        <pt x="0" y="1536" on="1"/>
      </contour>
      <contour>
        <pt x="1024" y="1536" on="1"/>
        <pt x="1024" y="0" on="1"/>
        <pt x="0" y="0" on="1"/>
        <pt x="0" y="1536" on="1"/>
      </contour>
    </TTGlyph>
    <TTGlyph name="g" xMin="0" yMin="0" xMax="1024" yMax="1536">
      <contour>
        <pt x="1024" y="1536" on="1"/>
        <pt x="1024" y="0" on="1"/>
        <pt x="0" y="0" on="1"/>
        <pt x="0" y="1536" on="1"/>
      </contour>
      <contour>
        <pt x="1024" y="1536" on="1"/>
        <pt x="1024" y="0" on="1"/>
        <pt x="0" y="0" on="1"/>
        <pt x="0" y="1536" on="1"/>
      </contour>
    </TTGlyph>
    <TTGlyph name="germandbls" xMin="0" yMin="0" xMax="1024" yMax="1536">
      <contour>
        <pt x="1024" y="1536" on="1"/>
        <pt x="1024" y="0" on="1"/>
        <pt x="0" y="0" on="1"/>
        <pt x="0" y="1536" on="1"/>
      </contour>
      <contour>
        <pt x="1024" y="1536" on="1"/>
        <pt x="1024" y="0" on="1"/>
        <pt x="0" y="0" on="1"/>
        <pt x="0" y="1536" on="1"/>
      </contour>
    </TTGlyph>
    <TTGlyph name="glyph3" xMin="0" yMin="0" xMax="1024" yMax="1536">
      <contour>
        <pt x="1024" y="1536" on="1"/>
        <pt x="1024" y="0" on="1"/>
        <pt x="0" y="0" on="1"/>
        <pt x="0" y="1536" on="1"/>
      </contour>
      <contour>
        <pt x="1024" y="1536" on="1"/>
        <pt x="1024" y="0" on="1"/>
        <pt x="0" y="0" on="1"/>
        <pt x="0" y="1536" on="1"/>
      </contour>
    </TTGlyph>
    <TTGlyph name="grave" xMin="0" yMin="0" xMax="1024" yMax="1536">
      <contour>
        <pt x="1024" y="1536" on="1"/>
        <pt x="1024" y="0" on="1"/>
        <pt x="0" y="0" on="1"/>
        <pt x="0" y="1536" on="1"/>
      </contour>
      <contour>
        <pt x="1024" y="1536" on="1"/>
        <pt x="1024" y="0" on="1"/>
        <pt x="0" y="0" on="1"/>
        <pt x="0" y="1536" on="1"/>
      </contour>
    </TTGlyph>
    <TTGlyph name="greater" xMin="0" yMin="0" xMax="1024" yMax="1536">
      <contour>
        <pt x="1024" y="1536" on="1"/>
        <pt x="1024" y="0" on="1"/>
        <pt x="0" y="0" on="1"/>
        <pt x="0" y="1536" on="1"/>
      </contour>
      <contour>
        <pt x="1024" y="1536" on="1"/>
        <pt x="1024" y="0" on="1"/>
        <pt x="0" y="0" on="1"/>
        <pt x="0" y="1536" on="1"/>
      </contour>
    </TTGlyph>
    <TTGlyph name="guillemotleft" xMin="0" yMin="0" xMax="1024" yMax="1536">
      <contour>
        <pt x="1024" y="1536" on="1"/>
        <pt x="1024" y="0" on="1"/>
        <pt x="0" y="0" on="1"/>
        <pt x="0" y="1536" on="1"/>
      </contour>
      <contour>
        <pt x="1024" y="1536" on="1"/>
        <pt x="1024" y="0" on="1"/>
        <pt x="0" y="0" on="1"/>
        <pt x="0" y="1536" on="1"/>
      </contour>
    </TTGlyph>
    <TTGlyph name="guillemotright" xMin="0" yMin="0" xMax="1024" yMax="1536">
      <contour>
        <pt x="1024" y="1536" on="1"/>
        <pt x="1024" y="0" on="1"/>
        <pt x="0" y="0" on="1"/>
        <pt x="0" y="1536" on="1"/>
      </contour>
      <contour>
        <pt x="1024" y="1536" on="1"/>
        <pt x="1024" y="0" on="1"/>
        <pt x="0" y="0" on="1"/>
        <pt x="0" y="1536" on="1"/>
      </contour>
    </TTGlyph>
    <TTGlyph name="guilsinglleft" xMin="0" yMin="0" xMax="1024" yMax="1536">
      <contour>
        <pt x="1024" y="1536" on="1"/>
        <pt x="1024" y="0" on="1"/>
        <pt x="0" y="0" on="1"/>
        <pt x="0" y="1536" on="1"/>
      </contour>
      <contour>
        <pt x="1024" y="1536" on="1"/>
        <pt x="1024" y="0" on="1"/>
        <pt x="0" y="0" on="1"/>
        <pt x="0" y="1536" on="1"/>
      </contour>
    </TTGlyph>
    <TTGlyph name="guilsinglright" xMin="0" yMin="0" xMax="1024" yMax="1536">
      <contour>
        <pt x="1024" y="1536" on="1"/>
        <pt x="1024" y="0" on="1"/>
        <pt x="0" y="0" on="1"/>
        <pt x="0" y="1536" on="1"/>
      </contour>
      <contour>
        <pt x="1024" y="1536" on="1"/>
        <pt x="1024" y="0" on="1"/>
        <pt x="0" y="0" on="1"/>
        <pt x="0" y="1536" on="1"/>
      </contour>
    </TTGlyph>
    <TTGlyph name="h" xMin="0" yMin="0" xMax="1024" yMax="1536">
      <contour>
        <pt x="1024" y="1536" on="1"/>
        <pt x="1024" y="0" on="1"/>
        <pt x="0" y="0" on="1"/>
        <pt x="0" y="1536" on="1"/>
      </contour>
      <contour>
        <pt x="1024" y="1536" on="1"/>
        <pt x="1024" y="0" on="1"/>
        <pt x="0" y="0" on="1"/>
        <pt x="0" y="1536" on="1"/>
      </contour>
    </TTGlyph>
    <TTGlyph name="hyphen" xMin="0" yMin="0" xMax="1024" yMax="1536">
      <contour>
        <pt x="1024" y="1536" on="1"/>
        <pt x="1024" y="0" on="1"/>
        <pt x="0" y="0" on="1"/>
        <pt x="0" y="1536" on="1"/>
      </contour>
      <contour>
        <pt x="1024" y="1536" on="1"/>
        <pt x="1024" y="0" on="1"/>
        <pt x="0" y="0" on="1"/>
        <pt x="0" y="1536" on="1"/>
      </contour>
    </TTGlyph>
    <TTGlyph name="i" xMin="0" yMin="0" xMax="1024" yMax="1536">
      <contour>
        <pt x="1024" y="1536" on="1"/>
        <pt x="1024" y="0" on="1"/>
        <pt x="0" y="0" on="1"/>
        <pt x="0" y="1536" on="1"/>
      </contour>
      <contour>
        <pt x="1024" y="1536" on="1"/>
        <pt x="1024" y="0" on="1"/>
        <pt x="0" y="0" on="1"/>
        <pt x="0" y="1536" on="1"/>
      </contour>
    </TTGlyph>
    <TTGlyph name="iacute" xMin="0" yMin="0" xMax="1024" yMax="1536">
      <contour>
        <pt x="1024" y="1536" on="1"/>
        <pt x="1024" y="0" on="1"/>
        <pt x="0" y="0" on="1"/>
        <pt x="0" y="1536" on="1"/>
      </contour>
      <contour>
        <pt x="1024" y="1536" on="1"/>
        <pt x="1024" y="0" on="1"/>
        <pt x="0" y="0" on="1"/>
        <pt x="0" y="1536" on="1"/>
      </contour>
    </TTGlyph>
    <TTGlyph name="icircumflex" xMin="0" yMin="0" xMax="1024" yMax="1536">
      <contour>
        <pt x="1024" y="1536" on="1"/>
        <pt x="1024" y="0" on="1"/>
        <pt x="0" y="0" on="1"/>
        <pt x="0" y="1536" on="1"/>
      </contour>
      <contour>
        <pt x="1024" y="1536" on="1"/>
        <pt x="1024" y="0" on="1"/>
        <pt x="0" y="0" on="1"/>
        <pt x="0" y="1536" on="1"/>
      </contour>
    </TTGlyph>
    <TTGlyph name="idieresis" xMin="0" yMin="0" xMax="1024" yMax="1536">
      <contour>
        <pt x="1024" y="1536" on="1"/>
        <pt x="1024" y="0" on="1"/>
        <pt x="0" y="0" on="1"/>
        <pt x="0" y="1536" on="1"/>
      </contour>
      <contour>
        <pt x="1024" y="1536" on="1"/>
        <pt x="1024" y="0" on="1"/>
        <pt x="0" y="0" on="1"/>
        <pt x="0" y="1536" on="1"/>
      </contour>
    </TTGlyph>
    <TTGlyph name="igrave" xMin="0" yMin="0" xMax="1024" yMax="1536">
      <contour>
        <pt x="1024" y="1536" on="1"/>
        <pt x="1024" y="0" on="1"/>
        <pt x="0" y="0" on="1"/>
        <pt x="0" y="1536" on="1"/>
      </contour>
      <contour>
        <pt x="1024" y="1536" on="1"/>
        <pt x="1024" y="0" on="1"/>
        <pt x="0" y="0" on="1"/>
        <pt x="0" y="1536" on="1"/>
      </contour>
    </TTGlyph>
    <TTGlyph name="j" xMin="0" yMin="0" xMax="1024" yMax="1536">
      <contour>
        <pt x="1024" y="1536" on="1"/>
        <pt x="1024" y="0" on="1"/>
        <pt x="0" y="0" on="1"/>
        <pt x="0" y="1536" on="1"/>
      </contour>
      <contour>
        <pt x="1024" y="1536" on="1"/>
        <pt x="1024" y="0" on="1"/>
        <pt x="0" y="0" on="1"/>
        <pt x="0" y="1536" on="1"/>
      </contour>
    </TTGlyph>
    <TTGlyph name="k" xMin="0" yMin="0" xMax="1024" yMax="1536">
      <contour>
        <pt x="1024" y="1536" on="1"/>
        <pt x="1024" y="0" on="1"/>
        <pt x="0" y="0" on="1"/>
        <pt x="0" y="1536" on="1"/>
      </contour>
      <contour>
        <pt x="1024" y="1536" on="1"/>
        <pt x="1024" y="0" on="1"/>
        <pt x="0" y="0" on="1"/>
        <pt x="0" y="1536" on="1"/>
      </contour>
    </TTGlyph>
    <TTGlyph name="l" xMin="0" yMin="0" xMax="1024" yMax="1536">
      <contour>
        <pt x="1024" y="1536" on="1"/>
        <pt x="1024" y="0" on="1"/>
        <pt x="0" y="0" on="1"/>
        <pt x="0" y="1536" on="1"/>
      </contour>
      <contour>
        <pt x="1024" y="1536" on="1"/>
        <pt x="1024" y="0" on="1"/>
        <pt x="0" y="0" on="1"/>
        <pt x="0" y="1536" on="1"/>
      </contour>
    </TTGlyph>
    <TTGlyph name="less" xMin="0" yMin="0" xMax="1024" yMax="1536">
      <contour>
        <pt x="1024" y="1536" on="1"/>
        <pt x="1024" y="0" on="1"/>
        <pt x="0" y="0" on="1"/>
        <pt x="0" y="1536" on="1"/>
      </contour>
      <contour>
        <pt x="1024" y="1536" on="1"/>
        <pt x="1024" y="0" on="1"/>
        <pt x="0" y="0" on="1"/>
        <pt x="0" y="1536" on="1"/>
      </contour>
    </TTGlyph>
    <TTGlyph name="logicalnot" xMin="0" yMin="0" xMax="1024" yMax="1536">
      <contour>
        <pt x="1024" y="1536" on="1"/>
        <pt x="1024" y="0" on="1"/>
        <pt x="0" y="0" on="1"/>
        <pt x="0" y="1536" on="1"/>
      </contour>
      <contour>
        <pt x="1024" y="1536" on="1"/>
        <pt x="1024" y="0" on="1"/>
        <pt x="0" y="0" on="1"/>
        <pt x="0" y="1536" on="1"/>
      </contour>
    </TTGlyph>
    <TTGlyph name="m" xMin="0" yMin="0" xMax="1024" yMax="1536">
      <contour>
        <pt x="1024" y="1536" on="1"/>
        <pt x="1024" y="0" on="1"/>
        <pt x="0" y="0" on="1"/>
        <pt x="0" y="1536" on="1"/>
      </contour>
      <contour>
        <pt x="1024" y="1536" on="1"/>
        <pt x="1024" y="0" on="1"/>
        <pt x="0" y="0" on="1"/>
        <pt x="0" y="1536" on="1"/>
      </contour>
    </TTGlyph>
    <TTGlyph name="macron" xMin="0" yMin="0" xMax="1024" yMax="1536">
      <contour>
        <pt x="1024" y="1536" on="1"/>
        <pt x="1024" y="0" on="1"/>
        <pt x="0" y="0" on="1"/>
        <pt x="0" y="1536" on="1"/>
      </contour>
      <contour>
        <pt x="1024" y="1536" on="1"/>
        <pt x="1024" y="0" on="1"/>
        <pt x="0" y="0" on="1"/>
        <pt x="0" y="1536" on="1"/>
      </contour>
    </TTGlyph>
    <TTGlyph name="n" xMin="0" yMin="0" xMax="1024" yMax="1536">
      <contour>
        <pt x="1024" y="1536" on="1"/>
        <pt x="1024" y="0" on="1"/>
        <pt x="0" y="0" on="1"/>
        <pt x="0" y="1536" on="1"/>
      </contour>
      <contour>
        <pt x="1024" y="1536" on="1"/>
        <pt x="1024" y="0" on="1"/>
        <pt x="0" y="0" on="1"/>
        <pt x="0" y="1536" on="1"/>
      </contour>
    </TTGlyph>
    <TTGlyph name="nine" xMin="0" yMin="0" xMax="1024" yMax="1536">
      <contour>
        <pt x="1024" y="1536" on="1"/>
        <pt x="1024" y="0" on="1"/>
        <pt x="0" y="0" on="1"/>
        <pt x="0" y="1536" on="1"/>
      </contour>
      <contour>
        <pt x="1024" y="1536" on="1"/>
        <pt x="1024" y="0" on="1"/>
        <pt x="0" y="0" on="1"/>
        <pt x="0" y="1536" on="1"/>
      </contour>
    </TTGlyph>
    <TTGlyph name="ntilde" xMin="0" yMin="0" xMax="1024" yMax="1536">
      <contour>
        <pt x="1024" y="1536" on="1"/>
        <pt x="1024" y="0" on="1"/>
        <pt x="0" y="0" on="1"/>
        <pt x="0" y="1536" on="1"/>
      </contour>
      <contour>
        <pt x="1024" y="1536" on="1"/>
        <pt x="1024" y="0" on="1"/>
        <pt x="0" y="0" on="1"/>
        <pt x="0" y="1536" on="1"/>
      </contour>
    </TTGlyph>
    <TTGlyph name="numbersign" xMin="0" yMin="0" xMax="1024" yMax="1536">
      <contour>
        <pt x="1024" y="1536" on="1"/>
        <pt x="1024" y="0" on="1"/>
        <pt x="0" y="0" on="1"/>
        <pt x="0" y="1536" on="1"/>
      </contour>
      <contour>
        <pt x="1024" y="1536" on="1"/>
        <pt x="1024" y="0" on="1"/>
        <pt x="0" y="0" on="1"/>
        <pt x="0" y="1536" on="1"/>
      </contour>
    </TTGlyph>
    <TTGlyph name="o" xMin="0" yMin="0" xMax="1024" yMax="1536">
      <contour>
        <pt x="1024" y="1536" on="1"/>
        <pt x="1024" y="0" on="1"/>
        <pt x="0" y="0" on="1"/>
        <pt x="0" y="1536" on="1"/>
      </contour>
      <contour>
        <pt x="1024" y="1536" on="1"/>
        <pt x="1024" y="0" on="1"/>
        <pt x="0" y="0" on="1"/>
        <pt x="0" y="1536" on="1"/>
      </contour>
    </TTGlyph>
    <TTGlyph name="oacute" xMin="0" yMin="0" xMax="1024" yMax="1536">
      <contour>
        <pt x="1024" y="1536" on="1"/>
        <pt x="1024" y="0" on="1"/>
        <pt x="0" y="0" on="1"/>
        <pt x="0" y="1536" on="1"/>
      </contour>
      <contour>
        <pt x="1024" y="1536" on="1"/>
        <pt x="1024" y="0" on="1"/>
        <pt x="0" y="0" on="1"/>
        <pt x="0" y="1536" on="1"/>
      </contour>
    </TTGlyph>
    <TTGlyph name="ocircumflex" xMin="0" yMin="0" xMax="1024" yMax="1536">
      <contour>
        <pt x="1024" y="1536" on="1"/>
        <pt x="1024" y="0" on="1"/>
        <pt x="0" y="0" on="1"/>
        <pt x="0" y="1536" on="1"/>
      </contour>
      <contour>
        <pt x="1024" y="1536" on="1"/>
        <pt x="1024" y="0" on="1"/>
        <pt x="0" y="0" on="1"/>
        <pt x="0" y="1536" on="1"/>
      </contour>
    </TTGlyph>
    <TTGlyph name="odieresis" xMin="0" yMin="0" xMax="1024" yMax="1536">
      <contour>
        <pt x="1024" y="1536" on="1"/>
        <pt x="1024" y="0" on="1"/>
        <pt x="0" y="0" on="1"/>
        <pt x="0" y="1536" on="1"/>
      </contour>
      <contour>
        <pt x="1024" y="1536" on="1"/>
        <pt x="1024" y="0" on="1"/>
        <pt x="0" y="0" on="1"/>
        <pt x="0" y="1536" on="1"/>
      </contour>
    </TTGlyph>
    <TTGlyph name="oe" xMin="0" yMin="0" xMax="1024" yMax="1536">
      <contour>
        <pt x="1024" y="1536" on="1"/>
        <pt x="1024" y="0" on="1"/>
        <pt x="0" y="0" on="1"/>
        <pt x="0" y="1536" on="1"/>
      </contour>
      <contour>
        <pt x="1024" y="1536" on="1"/>
        <pt x="1024" y="0" on="1"/>
        <pt x="0" y="0" on="1"/>
        <pt x="0" y="1536" on="1"/>
      </contour>
    </TTGlyph>
    <TTGlyph name="ograve" xMin="0" yMin="0" xMax="1024" yMax="1536">
      <contour>
        <pt x="1024" y="1536" on="1"/>
        <pt x="1024" y="0" on="1"/>
        <pt x="0" y="0" on="1"/>
        <pt x="0" y="1536" on="1"/>
      </contour>
      <contour>
        <pt x="1024" y="1536" on="1"/>
        <pt x="1024" y="0" on="1"/>
        <pt x="0" y="0" on="1"/>
        <pt x="0" y="1536" on="1"/>
      </contour>
    </TTGlyph>
    <TTGlyph name="one" xMin="0" yMin="0" xMax="1024" yMax="1536">
      <contour>
        <pt x="1024" y="1536" on="1"/>
        <pt x="1024" y="0" on="1"/>
        <pt x="0" y="0" on="1"/>
        <pt x="0" y="1536" on="1"/>
      </contour>
      <contour>
        <pt x="1024" y="1536" on="1"/>
        <pt x="1024" y="0" on="1"/>
        <pt x="0" y="0" on="1"/>
        <pt x="0" y="1536" on="1"/>
      </contour>
    </TTGlyph>
    <TTGlyph name="ordfeminine" xMin="0" yMin="0" xMax="1024" yMax="1536">
      <contour>
        <pt x="1024" y="1536" on="1"/>
        <pt x="1024" y="0" on="1"/>
        <pt x="0" y="0" on="1"/>
        <pt x="0" y="1536" on="1"/>
      </contour>
      <contour>
        <pt x="1024" y="1536" on="1"/>
        <pt x="1024" y="0" on="1"/>
        <pt x="0" y="0" on="1"/>
        <pt x="0" y="1536" on="1"/>
      </contour>
    </TTGlyph>
    <TTGlyph name="ordmasculine" xMin="0" yMin="0" xMax="1024" yMax="1536">
      <contour>
        <pt x="1024" y="1536" on="1"/>
        <pt x="1024" y="0" on="1"/>
        <pt x="0" y="0" on="1"/>
        <pt x="0" y="1536" on="1"/>
      </contour>
      <contour>
        <pt x="1024" y="1536" on="1"/>
        <pt x="1024" y="0" on="1"/>
        <pt x="0" y="0" on="1"/>
        <pt x="0" y="1536" on="1"/>
      </contour>
    </TTGlyph>
    <TTGlyph name="oslash" xMin="0" yMin="0" xMax="1024" yMax="1536">
      <contour>
        <pt x="1024" y="1536" on="1"/>
        <pt x="1024" y="0" on="1"/>
        <pt x="0" y="0" on="1"/>
        <pt x="0" y="1536" on="1"/>
      </contour>
      <contour>
        <pt x="1024" y="1536" on="1"/>
        <pt x="1024" y="0" on="1"/>
        <pt x="0" y="0" on="1"/>
        <pt x="0" y="1536" on="1"/>
      </contour>
    </TTGlyph>
    <TTGlyph name="otilde" xMin="0" yMin="0" xMax="1024" yMax="1536">
      <contour>
        <pt x="1024" y="1536" on="1"/>
        <pt x="1024" y="0" on="1"/>
        <pt x="0" y="0" on="1"/>
        <pt x="0" y="1536" on="1"/>
      </contour>
      <contour>
        <pt x="1024" y="1536" on="1"/>
        <pt x="1024" y="0" on="1"/>
        <pt x="0" y="0" on="1"/>
        <pt x="0" y="1536" on="1"/>
      </contour>
    </TTGlyph>
    <TTGlyph name="p" xMin="0" yMin="0" xMax="1024" yMax="1536">
      <contour>
        <pt x="1024" y="1536" on="1"/>
        <pt x="1024" y="0" on="1"/>
        <pt x="0" y="0" on="1"/>
        <pt x="0" y="1536" on="1"/>
      </contour>
      <contour>
        <pt x="1024" y="1536" on="1"/>
        <pt x="1024" y="0" on="1"/>
        <pt x="0" y="0" on="1"/>
        <pt x="0" y="1536" on="1"/>
      </contour>
    </TTGlyph>
    <TTGlyph name="paragraph" xMin="0" yMin="0" xMax="1024" yMax="1536">
      <contour>
        <pt x="1024" y="1536" on="1"/>
        <pt x="1024" y="0" on="1"/>
        <pt x="0" y="0" on="1"/>
        <pt x="0" y="1536" on="1"/>
      </contour>
      <contour>
        <pt x="1024" y="1536" on="1"/>
        <pt x="1024" y="0" on="1"/>
        <pt x="0" y="0" on="1"/>
        <pt x="0" y="1536" on="1"/>
      </contour>
    </TTGlyph>
    <TTGlyph name="parenleft" xMin="0" yMin="0" xMax="1024" yMax="1536">
      <contour>
        <pt x="1024" y="1536" on="1"/>
        <pt x="1024" y="0" on="1"/>
        <pt x="0" y="0" on="1"/>
        <pt x="0" y="1536" on="1"/>
      </contour>
      <contour>
        <pt x="1024" y="1536" on="1"/>
        <pt x="1024" y="0" on="1"/>
        <pt x="0" y="0" on="1"/>
        <pt x="0" y="1536" on="1"/>
      </contour>
    </TTGlyph>
    <TTGlyph name="parenright" xMin="0" yMin="0" xMax="1024" yMax="1536">
      <contour>
        <pt x="1024" y="1536" on="1"/>
        <pt x="1024" y="0" on="1"/>
        <pt x="0" y="0" on="1"/>
        <pt x="0" y="1536" on="1"/>
      </contour>
      <contour>
        <pt x="1024" y="1536" on="1"/>
        <pt x="1024" y="0" on="1"/>
        <pt x="0" y="0" on="1"/>
        <pt x="0" y="1536" on="1"/>
      </contour>
    </TTGlyph>
    <TTGlyph name="percent" xMin="0" yMin="0" xMax="1024" yMax="1536">
      <contour>
        <pt x="1024" y="1536" on="1"/>
        <pt x="1024" y="0" on="1"/>
        <pt x="0" y="0" on="1"/>
        <pt x="0" y="1536" on="1"/>
      </contour>
      <contour>
        <pt x="1024" y="1536" on="1"/>
        <pt x="1024" y="0" on="1"/>
        <pt x="0" y="0" on="1"/>
        <pt x="0" y="1536" on="1"/>
      </contour>
    </TTGlyph>
    <TTGlyph name="period" xMin="0" yMin="0" xMax="1024" yMax="1536">
      <contour>
        <pt x="1024" y="1536" on="1"/>
        <pt x="1024" y="0" on="1"/>
        <pt x="0" y="0" on="1"/>
        <pt x="0" y="1536" on="1"/>
      </contour>
      <contour>
        <pt x="1024" y="1536" on="1"/>
        <pt x="1024" y="0" on="1"/>
        <pt x="0" y="0" on="1"/>
        <pt x="0" y="1536" on="1"/>
      </contour>
    </TTGlyph>
    <TTGlyph name="periodcentered" xMin="0" yMin="0" xMax="1024" yMax="1536">
      <contour>
        <pt x="1024" y="1536" on="1"/>
        <pt x="1024" y="0" on="1"/>
        <pt x="0" y="0" on="1"/>
        <pt x="0" y="1536" on="1"/>
      </contour>
      <contour>
        <pt x="1024" y="1536" on="1"/>
        <pt x="1024" y="0" on="1"/>
        <pt x="0" y="0" on="1"/>
        <pt x="0" y="1536" on="1"/>
      </contour>
    </TTGlyph>
    <TTGlyph name="plus" xMin="0" yMin="0" xMax="1024" yMax="1536">
      <contour>
        <pt x="1024" y="1536" on="1"/>
        <pt x="1024" y="0" on="1"/>
        <pt x="0" y="0" on="1"/>
        <pt x="0" y="1536" on="1"/>
      </contour>
      <contour>
        <pt x="1024" y="1536" on="1"/>
        <pt x="1024" y="0" on="1"/>
        <pt x="0" y="0" on="1"/>
        <pt x="0" y="1536" on="1"/>
      </contour>
    </TTGlyph>
    <TTGlyph name="plusminus" xMin="0" yMin="0" xMax="1024" yMax="1536">
      <contour>
        <pt x="1024" y="1536" on="1"/>
        <pt x="1024" y="0" on="1"/>
        <pt x="0" y="0" on="1"/>
        <pt x="0" y="1536" on="1"/>
      </contour>
      <contour>
        <pt x="1024" y="1536" on="1"/>
        <pt x="1024" y="0" on="1"/>
        <pt x="0" y="0" on="1"/>
        <pt x="0" y="1536" on="1"/>
      </contour>
    </TTGlyph>
    <TTGlyph name="q" xMin="0" yMin="0" xMax="1024" yMax="1536">
      <contour>
        <pt x="1024" y="1536" on="1"/>
        <pt x="1024" y="0" on="1"/>
        <pt x="0" y="0" on="1"/>
        <pt x="0" y="1536" on="1"/>
      </contour>
      <contour>
        <pt x="1024" y="1536" on="1"/>
        <pt x="1024" y="0" on="1"/>
        <pt x="0" y="0" on="1"/>
        <pt x="0" y="1536" on="1"/>
      </contour>
    </TTGlyph>
    <TTGlyph name="question" xMin="0" yMin="0" xMax="1024" yMax="1536">
      <contour>
        <pt x="1024" y="1536" on="1"/>
        <pt x="1024" y="0" on="1"/>
        <pt x="0" y="0" on="1"/>
        <pt x="0" y="1536" on="1"/>
      </contour>
      <contour>
        <pt x="1024" y="1536" on="1"/>
        <pt x="1024" y="0" on="1"/>
        <pt x="0" y="0" on="1"/>
        <pt x="0" y="1536" on="1"/>
      </contour>
    </TTGlyph>
    <TTGlyph name="questiondown" xMin="0" yMin="0" xMax="1024" yMax="1536">
      <contour>
        <pt x="1024" y="1536" on="1"/>
        <pt x="1024" y="0" on="1"/>
        <pt x="0" y="0" on="1"/>
        <pt x="0" y="1536" on="1"/>
      </contour>
      <contour>
        <pt x="1024" y="1536" on="1"/>
        <pt x="1024" y="0" on="1"/>
        <pt x="0" y="0" on="1"/>
        <pt x="0" y="1536" on="1"/>
      </contour>
    </TTGlyph>
    <TTGlyph name="quotedbl" xMin="0" yMin="0" xMax="1024" yMax="1536">
      <contour>
        <pt x="1024" y="1536" on="1"/>
        <pt x="1024" y="0" on="1"/>
        <pt x="0" y="0" on="1"/>
        <pt x="0" y="1536" on="1"/>
      </contour>
      <contour>
        <pt x="1024" y="1536" on="1"/>
        <pt x="1024" y="0" on="1"/>
        <pt x="0" y="0" on="1"/>
        <pt x="0" y="1536" on="1"/>
      </contour>
    </TTGlyph>
    <TTGlyph name="quotedblbase" xMin="0" yMin="0" xMax="1024" yMax="1536">
      <contour>
        <pt x="1024" y="1536" on="1"/>
        <pt x="1024" y="0" on="1"/>
        <pt x="0" y="0" on="1"/>
        <pt x="0" y="1536" on="1"/>
      </contour>
      <contour>
        <pt x="1024" y="1536" on="1"/>
        <pt x="1024" y="0" on="1"/>
        <pt x="0" y="0" on="1"/>
        <pt x="0" y="1536" on="1"/>
      </contour>
    </TTGlyph>
    <TTGlyph name="quotedblleft" xMin="0" yMin="0" xMax="1024" yMax="1536">
      <contour>
        <pt x="1024" y="1536" on="1"/>
        <pt x="1024" y="0" on="1"/>
        <pt x="0" y="0" on="1"/>
        <pt x="0" y="1536" on="1"/>
      </contour>
      <contour>
        <pt x="1024" y="1536" on="1"/>
        <pt x="1024" y="0" on="1"/>
        <pt x="0" y="0" on="1"/>
        <pt x="0" y="1536" on="1"/>
      </contour>
    </TTGlyph>
    <TTGlyph name="quotedblright" xMin="0" yMin="0" xMax="1024" yMax="1536">
      <contour>
        <pt x="1024" y="1536" on="1"/>
        <pt x="1024" y="0" on="1"/>
        <pt x="0" y="0" on="1"/>
        <pt x="0" y="1536" on="1"/>
      </contour>
      <contour>
        <pt x="1024" y="1536" on="1"/>
        <pt x="1024" y="0" on="1"/>
        <pt x="0" y="0" on="1"/>
        <pt x="0" y="1536" on="1"/>
      </contour>
    </TTGlyph>
    <TTGlyph name="quoteleft" xMin="0" yMin="0" xMax="1024" yMax="1536">
      <contour>
        <pt x="1024" y="1536" on="1"/>
        <pt x="1024" y="0" on="1"/>
        <pt x="0" y="0" on="1"/>
        <pt x="0" y="1536" on="1"/>
      </contour>
      <contour>
        <pt x="1024" y="1536" on="1"/>
        <pt x="1024" y="0" on="1"/>
        <pt x="0" y="0" on="1"/>
        <pt x="0" y="1536" on="1"/>
      </contour>
    </TTGlyph>
    <TTGlyph name="quoteright" xMin="0" yMin="0" xMax="1024" yMax="1536">
      <contour>
        <pt x="1024" y="1536" on="1"/>
        <pt x="1024" y="0" on="1"/>
        <pt x="0" y="0" on="1"/>
        <pt x="0" y="1536" on="1"/>
      </contour>
      <contour>
        <pt x="1024" y="1536" on="1"/>
        <pt x="1024" y="0" on="1"/>
        <pt x="0" y="0" on="1"/>
        <pt x="0" y="1536" on="1"/>
      </contour>
    </TTGlyph>
    <TTGlyph name="quotesinglbase" xMin="0" yMin="0" xMax="1024" yMax="1536">
      <contour>
        <pt x="1024" y="1536" on="1"/>
        <pt x="1024" y="0" on="1"/>
        <pt x="0" y="0" on="1"/>
        <pt x="0" y="1536" on="1"/>
      </contour>
      <contour>
        <pt x="1024" y="1536" on="1"/>
        <pt x="1024" y="0" on="1"/>
        <pt x="0" y="0" on="1"/>
        <pt x="0" y="1536" on="1"/>
      </contour>
    </TTGlyph>
    <TTGlyph name="quotesingle" xMin="0" yMin="0" xMax="1024" yMax="1536">
      <contour>
        <pt x="1024" y="1536" on="1"/>
        <pt x="1024" y="0" on="1"/>
        <pt x="0" y="0" on="1"/>
        <pt x="0" y="1536" on="1"/>
      </contour>
      <contour>
        <pt x="1024" y="1536" on="1"/>
        <pt x="1024" y="0" on="1"/>
        <pt x="0" y="0" on="1"/>
        <pt x="0" y="1536" on="1"/>
      </contour>
    </TTGlyph>
    <TTGlyph name="r" xMin="0" yMin="0" xMax="1024" yMax="1536">
      <contour>
        <pt x="1024" y="1536" on="1"/>
        <pt x="1024" y="0" on="1"/>
        <pt x="0" y="0" on="1"/>
        <pt x="0" y="1536" on="1"/>
      </contour>
      <contour>
        <pt x="1024" y="1536" on="1"/>
        <pt x="1024" y="0" on="1"/>
        <pt x="0" y="0" on="1"/>
        <pt x="0" y="1536" on="1"/>
      </contour>
    </TTGlyph>
    <TTGlyph name="registered" xMin="0" yMin="0" xMax="1024" yMax="1536">
      <contour>
        <pt x="1024" y="1536" on="1"/>
        <pt x="1024" y="0" on="1"/>
        <pt x="0" y="0" on="1"/>
        <pt x="0" y="1536" on="1"/>
      </contour>
      <contour>
        <pt x="1024" y="1536" on="1"/>
        <pt x="1024" y="0" on="1"/>
        <pt x="0" y="0" on="1"/>
        <pt x="0" y="1536" on="1"/>
      </contour>
    </TTGlyph>
    <TTGlyph name="s" xMin="0" yMin="0" xMax="1024" yMax="1536">
      <contour>
        <pt x="1024" y="1536" on="1"/>
        <pt x="1024" y="0" on="1"/>
        <pt x="0" y="0" on="1"/>
        <pt x="0" y="1536" on="1"/>
      </contour>
      <contour>
        <pt x="1024" y="1536" on="1"/>
        <pt x="1024" y="0" on="1"/>
        <pt x="0" y="0" on="1"/>
        <pt x="0" y="1536" on="1"/>
      </contour>
    </TTGlyph>
    <TTGlyph name="section" xMin="0" yMin="0" xMax="1024" yMax="1536">
      <contour>
        <pt x="1024" y="1536" on="1"/>
        <pt x="1024" y="0" on="1"/>
        <pt x="0" y="0" on="1"/>
        <pt x="0" y="1536" on="1"/>
      </contour>
      <contour>
        <pt x="1024" y="1536" on="1"/>
        <pt x="1024" y="0" on="1"/>
        <pt x="0" y="0" on="1"/>
        <pt x="0" y="1536" on="1"/>
      </contour>
    </TTGlyph>
    <TTGlyph name="semicolon" xMin="0" yMin="0" xMax="1024" yMax="1536">
      <contour>
        <pt x="1024" y="1536" on="1"/>
        <pt x="1024" y="0" on="1"/>
        <pt x="0" y="0" on="1"/>
        <pt x="0" y="1536" on="1"/>
      </contour>
      <contour>
        <pt x="1024" y="1536" on="1"/>
        <pt x="1024" y="0" on="1"/>
        <pt x="0" y="0" on="1"/>
        <pt x="0" y="1536" on="1"/>
      </contour>
    </TTGlyph>
    <TTGlyph name="seven" xMin="0" yMin="0" xMax="1024" yMax="1536">
      <contour>
        <pt x="1024" y="1536" on="1"/>
        <pt x="1024" y="0" on="1"/>
        <pt x="0" y="0" on="1"/>
        <pt x="0" y="1536" on="1"/>
      </contour>
      <contour>
        <pt x="1024" y="1536" on="1"/>
        <pt x="1024" y="0" on="1"/>
        <pt x="0" y="0" on="1"/>
        <pt x="0" y="1536" on="1"/>
      </contour>
    </TTGlyph>
    <TTGlyph name="six" xMin="0" yMin="0" xMax="1024" yMax="1536">
      <contour>
        <pt x="1024" y="1536" on="1"/>
        <pt x="1024" y="0" on="1"/>
        <pt x="0" y="0" on="1"/>
        <pt x="0" y="1536" on="1"/>
      </contour>
      <contour>
        <pt x="1024" y="1536" on="1"/>
        <pt x="1024" y="0" on="1"/>
        <pt x="0" y="0" on="1"/>
        <pt x="0" y="1536" on="1"/>
      </contour>
    </TTGlyph>
    <TTGlyph name="slash" xMin="0" yMin="0" xMax="1024" yMax="1536">
      <contour>
        <pt x="1024" y="1536" on="1"/>
        <pt x="1024" y="0" on="1"/>
        <pt x="0" y="0" on="1"/>
        <pt x="0" y="1536" on="1"/>
      </contour>
      <contour>
        <pt x="1024" y="1536" on="1"/>
        <pt x="1024" y="0" on="1"/>
        <pt x="0" y="0" on="1"/>
        <pt x="0" y="1536" on="1"/>
      </contour>
    </TTGlyph>
    <TTGlyph name="space" xMin="0" yMin="0" xMax="768" yMax="1536">
      <contour>
        <pt x="768" y="1536" on="1"/>
        <pt x="768" y="0" on="1"/>
        <pt x="0" y="0" on="1"/>
        <pt x="0" y="1536" on="1"/>
      </contour>
    </TTGlyph>
    <TTGlyph name="sterling" xMin="0" yMin="0" xMax="1024" yMax="1536">
      <contour>
        <pt x="1024" y="1536" on="1"/>
        <pt x="1024" y="0" on="1"/>
        <pt x="0" y="0" on="1"/>
        <pt x="0" y="1536" on="1"/>
      </contour>
      <contour>
        <pt x="1024" y="1536" on="1"/>
        <pt x="1024" y="0" on="1"/>
        <pt x="0" y="0" on="1"/>
        <pt x="0" y="1536" on="1"/>
      </contour>
    </TTGlyph>
    <TTGlyph name="t" xMin="0" yMin="0" xMax="1024" yMax="1536">
      <contour>
        <pt x="1024" y="1536" on="1"/>
        <pt x="1024" y="0" on="1"/>
        <pt x="0" y="0" on="1"/>
        <pt x="0" y="1536" on="1"/>
      </contour>
      <contour>
        <pt x="1024" y="1536" on="1"/>
        <pt x="1024" y="0" on="1"/>
        <pt x="0" y="0" on="1"/>
        <pt x="0" y="1536" on="1"/>
      </contour>
    </TTGlyph>
    <TTGlyph name="three" xMin="0" yMin="0" xMax="1024" yMax="1536">
      <contour>
        <pt x="1024" y="1536" on="1"/>
        <pt x="1024" y="0" on="1"/>
        <pt x="0" y="0" on="1"/>
        <pt x="0" y="1536" on="1"/>
      </contour>
      <contour>
        <pt x="1024" y="1536" on="1"/>
        <pt x="1024" y="0" on="1"/>
        <pt x="0" y="0" on="1"/>
        <pt x="0" y="1536" on="1"/>
      </contour>
    </TTGlyph>
    <TTGlyph name="tilde" xMin="0" yMin="0" xMax="1024" yMax="1536">
      <contour>
        <pt x="1024" y="1536" on="1"/>
        <pt x="1024" y="0" on="1"/>
        <pt x="0" y="0" on="1"/>
        <pt x="0" y="1536" on="1"/>
      </contour>
      <contour>
        <pt x="1024" y="1536" on="1"/>
        <pt x="1024" y="0" on="1"/>
        <pt x="0" y="0" on="1"/>
        <pt x="0" y="1536" on="1"/>
      </contour>
    </TTGlyph>
    <TTGlyph name="trademark" xMin="0" yMin="0" xMax="1024" yMax="1536">
      <contour>
        <pt x="1024" y="1536" on="1"/>
        <pt x="1024" y="0" on="1"/>
        <pt x="0" y="0" on="1"/>
        <pt x="0" y="1536" on="1"/>
      </contour>
      <contour>
        <pt x="1024" y="1536" on="1"/>
        <pt x="1024" y="0" on="1"/>
        <pt x="0" y="0" on="1"/>
        <pt x="0" y="1536" on="1"/>
      </contour>
    </TTGlyph>
    <TTGlyph name="two" xMin="0" yMin="0" xMax="1024" yMax="1536">
      <contour>
        <pt x="1024" y="1536" on="1"/>
        <pt x="1024" y="0" on="1"/>
        <pt x="0" y="0" on="1"/>
        <pt x="0" y="1536" on="1"/>
      </contour>
      <contour>
        <pt x="1024" y="1536" on="1"/>
        <pt x="1024" y="0" on="1"/>
        <pt x="0" y="0" on="1"/>
        <pt x="0" y="1536" on="1"/>
      </contour>
    </TTGlyph>
    <TTGlyph name="u" xMin="0" yMin="0" xMax="1024" yMax="1536">
      <contour>
        <pt x="1024" y="1536" on="1"/>
        <pt x="1024" y="0" on="1"/>
        <pt x="0" y="0" on="1"/>
        <pt x="0" y="1536" on="1"/>
      </contour>
      <contour>
        <pt x="1024" y="1536" on="1"/>
        <pt x="1024" y="0" on="1"/>
        <pt x="0" y="0" on="1"/>
        <pt x="0" y="1536" on="1"/>
      </contour>
    </TTGlyph>
    <TTGlyph name="uacute" xMin="0" yMin="0" xMax="1024" yMax="1536">
      <contour>
        <pt x="1024" y="1536" on="1"/>
        <pt x="1024" y="0" on="1"/>
        <pt x="0" y="0" on="1"/>
        <pt x="0" y="1536" on="1"/>
      </contour>
      <contour>
        <pt x="1024" y="1536" on="1"/>
        <pt x="1024" y="0" on="1"/>
        <pt x="0" y="0" on="1"/>
        <pt x="0" y="1536" on="1"/>
      </contour>
    </TTGlyph>
    <TTGlyph name="ucircumflex" xMin="0" yMin="0" xMax="1024" yMax="1536">
      <contour>
        <pt x="1024" y="1536" on="1"/>
        <pt x="1024" y="0" on="1"/>
        <pt x="0" y="0" on="1"/>
        <pt x="0" y="1536" on="1"/>
      </contour>
      <contour>
        <pt x="1024" y="1536" on="1"/>
        <pt x="1024" y="0" on="1"/>
        <pt x="0" y="0" on="1"/>
        <pt x="0" y="1536" on="1"/>
      </contour>
    </TTGlyph>
    <TTGlyph name="udieresis" xMin="0" yMin="0" xMax="1024" yMax="1536">
      <contour>
        <pt x="1024" y="1536" on="1"/>
        <pt x="1024" y="0" on="1"/>
        <pt x="0" y="0" on="1"/>
        <pt x="0" y="1536" on="1"/>
      </contour>
      <contour>
        <pt x="1024" y="1536" on="1"/>
        <pt x="1024" y="0" on="1"/>
        <pt x="0" y="0" on="1"/>
        <pt x="0" y="1536" on="1"/>
      </contour>
    </TTGlyph>
    <TTGlyph name="ugrave" xMin="0" yMin="0" xMax="1024" yMax="1536">
      <contour>
        <pt x="1024" y="1536" on="1"/>
        <pt x="1024" y="0" on="1"/>
        <pt x="0" y="0" on="1"/>
        <pt x="0" y="1536" on="1"/>
      </contour>
      <contour>
        <pt x="1024" y="1536" on="1"/>
        <pt x="1024" y="0" on="1"/>
        <pt x="0" y="0" on="1"/>
        <pt x="0" y="1536" on="1"/>
      </contour>
    </TTGlyph>
    <TTGlyph name="underscore" xMin="0" yMin="0" xMax="1024" yMax="1536">
      <contour>
        <pt x="1024" y="1536" on="1"/>
        <pt x="1024" y="0" on="1"/>
        <pt x="0" y="0" on="1"/>
        <pt x="0" y="1536" on="1"/>
      </contour>
      <contour>
        <pt x="1024" y="1536" on="1"/>
        <pt x="1024" y="0" on="1"/>
        <pt x="0" y="0" on="1"/>
        <pt x="0" y="1536" on="1"/>
      </contour>
    </TTGlyph>
    <TTGlyph name="uni0002" xMin="0" yMin="0" xMax="1024" yMax="1536">
      <contour>
        <pt x="1024" y="1536" on="1"/>
        <pt x="1024" y="0" on="1"/>
        <pt x="0" y="0" on="1"/>
        <pt x="0" y="1536" on="1"/>
      </contour>
      <contour>
        <pt x="1024" y="1536" on="1"/>
        <pt x="1024" y="0" on="1"/>
        <pt x="0" y="0" on="1"/>
        <pt x="0" y="1536" on="1"/>
      </contour>
    </TTGlyph>
    <TTGlyph name="uni0009" xMin="0" yMin="0" xMax="1024" yMax="1536">
      <contour>
        <pt x="1024" y="1536" on="1"/>
        <pt x="1024" y="0" on="1"/>
        <pt x="0" y="0" on="1"/>
        <pt x="0" y="1536" on="1"/>
      </contour>
      <contour>
        <pt x="1024" y="1536" on="1"/>
        <pt x="1024" y="0" on="1"/>
        <pt x="0" y="0" on="1"/>
        <pt x="0" y="1536" on="1"/>
      </contour>
    </TTGlyph>
    <TTGlyph name="uni000A" xMin="0" yMin="0" xMax="1024" yMax="1536">
      <contour>
        <pt x="1024" y="1536" on="1"/>
        <pt x="1024" y="0" on="1"/>
        <pt x="0" y="0" on="1"/>
        <pt x="0" y="1536" on="1"/>
      </contour>
      <contour>
        <pt x="1024" y="1536" on="1"/>
        <pt x="1024" y="0" on="1"/>
        <pt x="0" y="0" on="1"/>
        <pt x="0" y="1536" on="1"/>
      </contour>
    </TTGlyph>
    <TTGlyph name="uni000D" xMin="0" yMin="0" xMax="1024" yMax="1536">
      <contour>
        <pt x="1024" y="1536" on="1"/>
        <pt x="1024" y="0" on="1"/>
        <pt x="0" y="0" on="1"/>
        <pt x="0" y="1536" on="1"/>
      </contour>
      <contour>
        <pt x="1024" y="1536" on="1"/>
        <pt x="1024" y="0" on="1"/>
        <pt x="0" y="0" on="1"/>
        <pt x="0" y="1536" on="1"/>
      </contour>
    </TTGlyph>
    <TTGlyph name="uni00A0" xMin="0" yMin="0" xMax="1024" yMax="1536">
      <contour>
        <pt x="1024" y="1536" on="1"/>
        <pt x="1024" y="0" on="1"/>
        <pt x="0" y="0" on="1"/>
        <pt x="0" y="1536" on="1"/>
      </contour>
      <contour>
        <pt x="1024" y="1536" on="1"/>
        <pt x="1024" y="0" on="1"/>
        <pt x="0" y="0" on="1"/>
        <pt x="0" y="1536" on="1"/>
      </contour>
    </TTGlyph>
    <TTGlyph name="uni00AD" xMin="0" yMin="0" xMax="1024" yMax="1536">
      <contour>
        <pt x="1024" y="1536" on="1"/>
        <pt x="1024" y="0" on="1"/>
        <pt x="0" y="0" on="1"/>
        <pt x="0" y="1536" on="1"/>
      </contour>
      <contour>
        <pt x="1024" y="1536" on="1"/>
        <pt x="1024" y="0" on="1"/>
        <pt x="0" y="0" on="1"/>
        <pt x="0" y="1536" on="1"/>
      </contour>
    </TTGlyph>
    <TTGlyph name="uni00B5" xMin="0" yMin="0" xMax="1024" yMax="1536">
      <contour>
        <pt x="1024" y="1536" on="1"/>
        <pt x="1024" y="0" on="1"/>
        <pt x="0" y="0" on="1"/>
        <pt x="0" y="1536" on="1"/>
      </contour>
      <contour>
        <pt x="1024" y="1536" on="1"/>
        <pt x="1024" y="0" on="1"/>
        <pt x="0" y="0" on="1"/>
        <pt x="0" y="1536" on="1"/>
      </contour>
    </TTGlyph>
    <TTGlyph name="uni2010" xMin="0" yMin="0" xMax="1024" yMax="1536">
      <contour>
        <pt x="1024" y="1536" on="1"/>
        <pt x="1024" y="0" on="1"/>
        <pt x="0" y="0" on="1"/>
        <pt x="0" y="1536" on="1"/>
      </contour>
      <contour>
        <pt x="1024" y="1536" on="1"/>
        <pt x="1024" y="0" on="1"/>
        <pt x="0" y="0" on="1"/>
        <pt x="0" y="1536" on="1"/>
      </contour>
    </TTGlyph>
    <TTGlyph name="uni2011" xMin="0" yMin="0" xMax="1024" yMax="1536">
      <contour>
        <pt x="1024" y="1536" on="1"/>
        <pt x="1024" y="0" on="1"/>
        <pt x="0" y="0" on="1"/>
        <pt x="0" y="1536" on="1"/>
      </contour>
      <contour>
        <pt x="1024" y="1536" on="1"/>
        <pt x="1024" y="0" on="1"/>
        <pt x="0" y="0" on="1"/>
        <pt x="0" y="1536" on="1"/>
      </contour>
    </TTGlyph>
    <TTGlyph name="uniE000" xMin="0" yMin="0" xMax="1536" yMax="1536">
      <contour>
        <pt x="0" y="1536" on="1"/>
        <pt x="1536" y="1536" on="1"/>
        <pt x="1536" y="0" on="1"/>
        <pt x="0" y="0" on="1"/>
      </contour>
    </TTGlyph>
    <TTGlyph name="uniFB01" xMin="0" yMin="0" xMax="1024" yMax="1536">
      <contour>
        <pt x="1024" y="1536" on="1"/>
        <pt x="1024" y="0" on="1"/>
        <pt x="0" y="0" on="1"/>
        <pt x="0" y="1536" on="1"/>
      </contour>
      <contour>
        <pt x="1024" y="1536" on="1"/>
        <pt x="1024" y="0" on="1"/>
        <pt x="0" y="0" on="1"/>
        <pt x="0" y="1536" on="1"/>
      </contour>
    </TTGlyph>
    <TTGlyph name="uniFB02" xMin="0" yMin="0" xMax="1024" yMax="1536">
      <contour>
        <pt x="1024" y="1536" on="1"/>
        <pt x="1024" y="0" on="1"/>
        <pt x="0" y="0" on="1"/>
        <pt x="0" y="1536" on="1"/>
      </contour>
      <contour>
        <pt x="1024" y="1536" on="1"/>
        <pt x="1024" y="0" on="1"/>
        <pt x="0" y="0" on="1"/>
        <pt x="0" y="1536" on="1"/>
      </contour>
    </TTGlyph>
    <TTGlyph name="v" xMin="0" yMin="0" xMax="1024" yMax="1536">
      <contour>
        <pt x="1024" y="1536" on="1"/>
        <pt x="1024" y="0" on="1"/>
        <pt x="0" y="0" on="1"/>
        <pt x="0" y="1536" on="1"/>
      </contour>
      <contour>
        <pt x="1024" y="1536" on="1"/>
        <pt x="1024" y="0" on="1"/>
        <pt x="0" y="0" on="1"/>
        <pt x="0" y="1536" on="1"/>
      </contour>
    </TTGlyph>
    <TTGlyph name="w" xMin="0" yMin="0" xMax="1024" yMax="1536">
      <contour>
        <pt x="1024" y="1536" on="1"/>
        <pt x="1024" y="0" on="1"/>
        <pt x="0" y="0" on="1"/>
        <pt x="0" y="1536" on="1"/>
      </contour>
      <contour>
        <pt x="1024" y="1536" on="1"/>
        <pt x="1024" y="0" on="1"/>
        <pt x="0" y="0" on="1"/>
        <pt x="0" y="1536" on="1"/>
      </contour>
    </TTGlyph>
    <TTGlyph name="x" xMin="0" yMin="0" xMax="1024" yMax="1536">
      <contour>
        <pt x="1024" y="1536" on="1"/>
        <pt x="1024" y="0" on="1"/>
        <pt x="0" y="0" on="1"/>
        <pt x="0" y="1536" on="1"/>
      </contour>
      <contour>
        <pt x="1024" y="1536" on="1"/>
        <pt x="1024" y="0" on="1"/>
        <pt x="0" y="0" on="1"/>
        <pt x="0" y="1536" on="1"/>
      </contour>
    </TTGlyph>
    <TTGlyph name="y" xMin="0" yMin="0" xMax="1024" yMax="1536">
      <contour>
        <pt x="1024" y="1536" on="1"/>
        <pt x="1024" y="0" on="1"/>
        <pt x="0" y="0" on="1"/>
        <pt x="0" y="1536" on="1"/>
      </contour>
      <contour>
        <pt x="1024" y="1536" on="1"/>
        <pt x="1024" y="0" on="1"/>
        <pt x="0" y="0" on="1"/>
        <pt x="0" y="1536" on="1"/>
      </contour>
    </TTGlyph>
    <TTGlyph name="ydieresis" xMin="0" yMin="0" xMax="1024" yMax="1536">
      <contour>
        <pt x="1024" y="1536" on="1"/>
        <pt x="1024" y="0" on="1"/>
        <pt x="0" y="0" on="1"/>
        <pt x="0" y="1536" on="1"/>
      </contour>
      <contour>
        <pt x="1024" y="1536" on="1"/>
        <pt x="1024" y="0" on="1"/>
        <pt x="0" y="0" on="1"/>
        <pt x="0" y="1536" on="1"/>
      </contour>
    </TTGlyph>
    <TTGlyph name="yen" xMin="0" yMin="0" xMax="1024" yMax="1536">
      <contour>
        <pt x="1024" y="1536" on="1"/>
        <pt x="1024" y="0" on="1"/>
        <pt x="0" y="0" on="1"/>
        <pt x="0" y="1536" on="1"/>
      </contour>
      <contour>
        <pt x="1024" y="1536" on="1"/>
        <pt x="1024" y="0" on="1"/>
        <pt x="0" y="0" on="1"/>
        <pt x="0" y="1536" on="1"/>
      </contour>
    </TTGlyph>
    <TTGlyph name="z" xMin="0" yMin="0" xMax="1024" yMax="1536">
      <contour>
        <pt x="1024" y="1536" on="1"/>
        <pt x="1024" y="0" on="1"/>
        <pt x="0" y="0" on="1"/>
        <pt x="0" y="1536" on="1"/>
      </contour>
      <contour>
        <pt x="1024" y="1536" on="1"/>
        <pt x="1024" y="0" on="1"/>
        <pt x="0" y="0" on="1"/>
        <pt x="0" y="1536" on="1"/>
      </contour>
    </TTGlyph>
    <TTGlyph name="zero" xMin="0" yMin="0" xMax="1024" yMax="1536">
      <contour>
        <pt x="1024" y="1536" on="1"/>
        <pt x="1024" y="0" on="1"/>
        <pt x="0" y="0" on="1"/>
        <pt x="0" y="1536" on="1"/>
      </contour>
      <contour>
        <pt x="1024" y="1536" on="1"/>
        <pt x="1024" y="0" on="1"/>
        <pt x="0" y="0" on="1"/>
        <pt x="0" y="1536" on="1"/>
      </contour>
    </TTGlyph>
</ttFont>
